<svg width="94" height="94" viewBox="0 0 94 94" fill="none" xmlns="http://www.w3.org/2000/svg">
<rect x="1" y="1" width="92" height="92" rx="46" stroke="#262626" stroke-width="2" stroke-dasharray="16 6"/>
<path d="M79 47L94 47" stroke="#262626" stroke-width="3"/>
<path d="M0 47L15 47" stroke="#262626" stroke-width="3"/>
<path d="M47 15V1.19209e-07" stroke="#262626" stroke-width="3"/>
<path d="M47 94V79" stroke="#262626" stroke-width="3"/>
<rect x="14" y="14" width="66" height="66" rx="33" fill="#1A1A1A"/>
<path d="M45.9376 39.9958C42.5296 40.5085 39.9167 43.4491 39.9167 47C39.9167 50.912 43.0881 54.0834 47.0001 54.0834C50.9121 54.0834 54.0834 50.912 54.0834 47C54.0834 43.4491 51.4706 40.5085 48.0626 39.9958V45.5834C48.0626 46.1702 47.5869 46.6459 47.0001 46.6459C46.4133 46.6459 45.9376 46.1702 45.9376 45.5834V39.9958Z" fill="#C2B4A3"/>
<path d="M48.4166 34.9583C48.4166 35.7407 47.7823 36.375 46.9999 36.375C46.2175 36.375 45.5833 35.7407 45.5833 34.9583C45.5833 34.1759 46.2175 33.5416 46.9999 33.5416C47.7823 33.5416 48.4166 34.1759 48.4166 34.9583Z" fill="#C2B4A3"/>
<path d="M59.0417 48.4167C58.2593 48.4167 57.625 47.7824 57.625 47C57.625 46.2176 58.2593 45.5834 59.0417 45.5834C59.8241 45.5834 60.4583 46.2176 60.4583 47C60.4583 47.7824 59.8241 48.4167 59.0417 48.4167Z" fill="#C2B4A3"/>
<path d="M34.9584 48.4167C34.176 48.4167 33.5417 47.7824 33.5417 47C33.5417 46.2176 34.176 45.5834 34.9584 45.5834C35.7408 45.5834 36.3751 46.2176 36.3751 47C36.3751 47.7824 35.7408 48.4167 34.9584 48.4167Z" fill="#C2B4A3"/>
<path d="M39.487 37.4835C40.0402 38.0368 40.0402 38.9338 39.487 39.487C38.9338 40.0402 38.0368 40.0402 37.4835 39.487C36.9303 38.9338 36.9303 38.0368 37.4835 37.4835C38.0368 36.9303 38.9338 36.9303 39.487 37.4835Z" fill="#C2B4A3"/>
<path d="M56.5165 54.5131C57.0698 55.0663 57.0698 55.9633 56.5165 56.5165C55.9633 57.0698 55.0663 57.0698 54.5131 56.5165C53.9598 55.9633 53.9598 55.0663 54.5131 54.5131C55.0663 53.9598 55.9633 53.9598 56.5165 54.5131Z" fill="#C2B4A3"/>
<path d="M56.5165 39.487C55.9633 40.0402 55.0663 40.0402 54.5131 39.487C53.9598 38.9338 53.9598 38.0368 54.5131 37.4835C55.0663 36.9303 55.9633 36.9303 56.5165 37.4835C57.0698 38.0368 57.0698 38.9338 56.5165 39.487Z" fill="#C2B4A3"/>
<path d="M39.487 56.5164C38.9338 57.0697 38.0368 57.0697 37.4835 56.5164C36.9303 55.9632 36.9303 55.0662 37.4835 54.513C38.0368 53.9597 38.9338 53.9597 39.487 54.513C40.0402 55.0662 40.0402 55.9632 39.487 56.5164Z" fill="#C2B4A3"/>
</svg>
