<svg width="149" height="161" viewBox="0 0 149 161" fill="none" xmlns="http://www.w3.org/2000/svg">
<path d="M90.6875 37.3228H91.6875V36.1611L90.5387 36.3339L90.6875 37.3228ZM106.062 37.3228L106.211 36.3339L105.062 36.1611V37.3228H106.062ZM44.0162 33.6412L44.7233 34.3483V34.3483L44.0162 33.6412ZM44.0162 19.1455L44.7233 18.4384V18.4384L44.0162 19.1455ZM29.5205 33.6412L28.8134 34.3483V34.3483L29.5205 33.6412ZM29.5205 19.1455L30.2276 19.8526V19.8526L29.5205 19.1455ZM167.23 142.36L167.937 141.653V141.653L167.23 142.36ZM167.23 156.856L167.937 157.563V157.563L167.23 156.856ZM152.734 142.36L152.027 141.653V141.653L152.734 142.36ZM152.734 156.856L152.027 157.563V157.563L152.734 156.856ZM152.734 33.6412L152.027 34.3483V34.3483L152.734 33.6412ZM167.23 33.6412L167.937 34.3483V34.3483L167.23 33.6412ZM152.734 19.1455L152.027 18.4384V18.4384L152.734 19.1455ZM167.23 19.1455L167.937 18.4384V18.4384L167.23 19.1455ZM44.0162 156.855L44.7233 157.562V157.562L44.0162 156.855ZM29.5205 156.855L28.8134 157.562H28.8134L29.5205 156.855ZM44.0162 142.359L44.7233 141.652V141.652L44.0162 142.359ZM29.5205 142.359L28.8134 141.652H28.8134L29.5205 142.359ZM109.625 0.875C109.625 -1.36457 108.97 -3.4541 107.84 -5.2086L106.158 -4.12575C107.086 -2.68443 107.625 -0.969141 107.625 0.875H109.625ZM104.459 -8.58969C102.704 -9.71955 100.615 -10.375 98.375 -10.375V-8.375C100.219 -8.375 101.934 -7.83637 103.376 -6.90819L104.459 -8.58969ZM98.375 -10.375C96.1354 -10.375 94.0459 -9.71955 92.2914 -8.58969L93.3743 -6.90819C94.8156 -7.83637 96.5309 -8.375 98.375 -8.375V-10.375ZM88.9103 -5.2086C87.7804 -3.4541 87.125 -1.36457 87.125 0.875H89.125C89.125 -0.969142 89.6636 -2.68443 90.5918 -4.12575L88.9103 -5.2086ZM87.125 0.875C87.125 3.11457 87.7804 5.2041 88.9103 6.9586L90.5918 5.87575C89.6636 4.43443 89.125 2.71914 89.125 0.875H87.125ZM92.2914 10.3397C94.0459 11.4696 96.1354 12.125 98.375 12.125V10.125C96.5309 10.125 94.8156 9.58637 93.3742 8.65819L92.2914 10.3397ZM98.375 12.125C100.615 12.125 102.704 11.4696 104.459 10.3397L103.376 8.65819C101.934 9.58637 100.219 10.125 98.375 10.125V12.125ZM107.84 6.9586C108.97 5.2041 109.625 3.11457 109.625 0.875H107.625C107.625 2.71914 107.086 4.43443 106.158 5.87575L107.84 6.9586ZM90.5387 36.3339C87.5349 36.7857 84.6145 37.4933 81.8006 38.4339L82.4346 40.3307C85.1398 39.4265 87.9477 38.7461 90.8363 38.3116L90.5387 36.3339ZM75.5577 40.9825C70.1228 43.6248 65.2154 47.1812 61.0351 51.4515L62.4643 52.8506C66.4858 48.7425 71.2061 45.322 76.4321 42.7812L75.5577 40.9825ZM56.6379 56.5615C53.0586 61.306 50.2691 66.6809 48.4656 72.4905L50.3757 73.0835C52.1095 67.4982 54.7916 62.3296 58.2345 57.766L56.6379 56.5615ZM46.8893 79.0467C46.3868 81.9565 46.125 84.9481 46.125 88H48.125C48.125 85.0627 48.3769 82.1849 48.8601 79.3871L46.8893 79.0467ZM46.125 88C46.125 90.5247 46.3041 93.0082 46.6505 95.4382L48.6305 95.156C48.2974 92.8191 48.125 90.43 48.125 88H46.125ZM47.7362 100.925C48.9813 105.818 50.9169 110.435 53.4326 114.666L55.1517 113.644C52.7323 109.575 50.8715 105.136 49.6744 100.432L47.7362 100.925ZM56.5443 119.314C59.5321 123.299 63.076 126.843 67.061 129.831L68.2607 128.231C64.4275 125.357 61.0184 121.948 58.1444 118.114L56.5443 119.314ZM71.709 132.942C75.94 135.458 80.557 137.394 85.45 138.639L85.9433 136.701C81.2392 135.504 76.8 133.643 72.7311 131.223L71.709 132.942ZM90.9368 139.724C93.3669 140.071 95.8503 140.25 98.375 140.25V138.25C95.945 138.25 93.5559 138.078 91.2191 137.745L90.9368 139.724ZM98.375 140.25C100.9 140.25 103.383 140.071 105.813 139.724L105.531 137.745C103.194 138.078 100.805 138.25 98.375 138.25V140.25ZM111.3 138.639C116.193 137.394 120.81 135.458 125.041 132.942L124.019 131.223C119.95 133.643 115.511 135.504 110.807 136.701L111.3 138.639ZM129.689 129.831C133.674 126.843 137.218 123.299 140.206 119.314L138.606 118.114C135.732 121.947 132.322 125.357 128.489 128.231L129.689 129.831ZM143.317 114.666C145.833 110.435 147.769 105.818 149.014 100.925L147.076 100.432C145.879 105.136 144.018 109.575 141.598 113.644L143.317 114.666ZM150.099 95.4382C150.446 93.0082 150.625 90.5247 150.625 88H148.625C148.625 90.43 148.453 92.8191 148.119 95.156L150.099 95.4382ZM150.625 88C150.625 84.9481 150.363 81.9565 149.861 79.0467L147.89 79.3871C148.373 82.1849 148.625 85.0627 148.625 88H150.625ZM148.284 72.4905C146.481 66.6809 143.691 61.306 140.112 56.5615L138.516 57.766C141.958 62.3296 144.641 67.4982 146.374 73.0835L148.284 72.4905ZM135.715 51.4515C131.535 47.1812 126.627 43.6248 121.192 40.9825L120.318 42.7812C125.544 45.322 130.264 48.7425 134.286 52.8506L135.715 51.4515ZM114.949 38.4339C112.136 37.4933 109.215 36.7857 106.211 36.3339L105.914 38.3116C108.802 38.7461 111.61 39.4265 114.315 40.3307L114.949 38.4339ZM105.062 37.3228V44.6732H107.062V37.3228H105.062ZM105.062 50.186V64.8868H107.062V50.186H105.062ZM105.062 70.3996V77.75H107.062V70.3996H105.062ZM105.062 77.75C105.062 79.0837 104.673 80.3234 104.002 81.3652L105.684 82.4481C106.556 81.0931 107.062 79.4791 107.062 77.75H105.062ZM101.99 83.3772C100.948 84.0482 99.7087 84.4375 98.375 84.4375V86.4375C100.104 86.4375 101.718 85.9313 103.073 85.0587L101.99 83.3772ZM98.375 84.4375C97.0413 84.4375 95.8016 84.0482 94.7598 83.3772L93.6769 85.0587C95.032 85.9313 96.6459 86.4375 98.375 86.4375V84.4375ZM92.7478 81.3652C92.0769 80.3234 91.6875 79.0837 91.6875 77.75H89.6875C89.6875 79.4791 90.1937 81.0931 91.0663 82.4481L92.7478 81.3652ZM91.6875 77.75V70.3996H89.6875V77.75H91.6875ZM91.6875 64.8868V50.186H89.6875V64.8868H91.6875ZM91.6875 44.6732V37.3228H89.6875V44.6732H91.6875ZM176.25 88C176.25 86.1559 176.789 84.4406 177.717 82.9993L176.035 81.9164C174.905 83.6709 174.25 85.7604 174.25 88H176.25ZM180.499 80.2168C181.941 79.2886 183.656 78.75 185.5 78.75V76.75C183.26 76.75 181.171 77.4054 179.416 78.5353L180.499 80.2168ZM185.5 78.75C187.344 78.75 189.059 79.2886 190.501 80.2168L191.584 78.5353C189.829 77.4054 187.74 76.75 185.5 76.75V78.75ZM193.283 82.9992C194.211 84.4406 194.75 86.1559 194.75 88H196.75C196.75 85.7604 196.095 83.6709 194.965 81.9164L193.283 82.9992ZM194.75 88C194.75 89.8441 194.211 91.5594 193.283 93.0007L194.965 94.0836C196.095 92.3291 196.75 90.2396 196.75 88H194.75ZM190.501 95.7832C189.059 96.7114 187.344 97.25 185.5 97.25V99.25C187.74 99.25 189.829 98.5946 191.584 97.4647L190.501 95.7832ZM185.5 97.25C183.656 97.25 181.941 96.7114 180.499 95.7832L179.416 97.4647C181.171 98.5946 183.26 99.25 185.5 99.25V97.25ZM177.717 93.0008C176.789 91.5594 176.25 89.8441 176.25 88H174.25C174.25 90.2396 174.905 92.3291 176.035 94.0836L177.717 93.0008ZM11.25 97.25C9.40586 97.25 7.69057 96.7114 6.24925 95.7832L5.1664 97.4647C6.9209 98.5946 9.01043 99.25 11.25 99.25V97.25ZM3.46681 93.0008C2.53863 91.5594 2 89.8441 2 88H0C0 90.2396 0.655448 92.3291 1.78531 94.0836L3.46681 93.0008ZM2 88C2 86.1559 2.53863 84.4406 3.46681 82.9993L1.78531 81.9164C0.655448 83.6709 0 85.7604 0 88H2ZM6.24925 80.2168C7.69057 79.2886 9.40586 78.75 11.25 78.75V76.75C9.01043 76.75 6.9209 77.4054 5.1664 78.5353L6.24925 80.2168ZM11.25 78.75C13.0941 78.75 14.8094 79.2886 16.2508 80.2168L17.3336 78.5353C15.5791 77.4054 13.4896 76.75 11.25 76.75V78.75ZM19.0332 82.9992C19.9614 84.4406 20.5 86.1559 20.5 88H22.5C22.5 85.7604 21.8446 83.6709 20.7147 81.9164L19.0332 82.9992ZM20.5 88C20.5 89.8441 19.9614 91.5594 19.0332 93.0007L20.7147 94.0836C21.8446 92.3291 22.5 90.2396 22.5 88H20.5ZM16.2508 95.7832C14.8094 96.7114 13.0941 97.25 11.25 97.25V99.25C13.4896 99.25 15.5791 98.5946 17.3336 97.4647L16.2508 95.7832ZM43.309 32.934C42.005 34.2381 40.4113 35.0701 38.7358 35.4329L39.1591 37.3876C41.1987 36.9459 43.1396 35.9319 44.7233 34.3483L43.309 32.934ZM34.8008 35.4329C33.1253 35.0701 31.5316 34.2381 30.2276 32.934L28.8134 34.3483C30.397 35.9319 32.338 36.9459 34.3775 37.3876L34.8008 35.4329ZM30.2276 32.934C28.9236 31.63 28.0915 30.0363 27.7287 28.3608L25.774 28.7841C26.2157 30.8237 27.2297 32.7646 28.8134 34.3483L30.2276 32.934ZM27.7287 24.4258C28.0915 22.7503 28.9236 21.1566 30.2276 19.8526L28.8134 18.4384C27.2297 20.022 26.2157 21.963 25.774 24.0025L27.7287 24.4258ZM30.2276 19.8526C31.5316 18.5486 33.1253 17.7165 34.8008 17.3537L34.3775 15.399C32.338 15.8407 30.397 16.8547 28.8134 18.4384L30.2276 19.8526ZM38.7358 17.3537C40.4113 17.7165 42.005 18.5486 43.309 19.8526L44.7233 18.4384C43.1396 16.8547 41.1987 15.8407 39.1591 15.399L38.7358 17.3537ZM43.309 19.8526C44.6131 21.1566 45.4451 22.7503 45.8079 24.4258L47.7626 24.0025C47.3209 21.963 46.3069 20.022 44.7233 18.4384L43.309 19.8526ZM45.8079 28.3608C45.4451 30.0363 44.6131 31.63 43.309 32.934L44.7233 34.3483C46.3069 32.7646 47.3209 30.8237 47.7626 28.7841L45.8079 28.3608ZM167.937 141.653C166.353 140.069 164.412 139.055 162.372 138.613L161.949 140.568C163.625 140.931 165.218 141.763 166.522 143.067L167.937 141.653ZM157.591 138.613C155.551 139.055 153.61 140.069 152.027 141.653L153.441 143.067C154.745 141.763 156.339 140.931 158.014 140.568L157.591 138.613ZM152.027 141.653C150.443 143.236 149.429 145.177 148.987 147.217L150.942 147.64C151.305 145.965 152.137 144.371 153.441 143.067L152.027 141.653ZM148.987 151.998C149.429 154.038 150.443 155.979 152.027 157.563L153.441 156.148C152.137 154.844 151.305 153.251 150.942 151.575L148.987 151.998ZM152.027 157.563C153.61 159.146 155.551 160.16 157.591 160.602L158.014 158.647C156.339 158.284 154.745 157.452 153.441 156.148L152.027 157.563ZM162.372 160.602C164.412 160.16 166.353 159.146 167.937 157.563L166.522 156.148C165.218 157.452 163.625 158.284 161.949 158.647L162.372 160.602ZM167.937 157.563C169.52 155.979 170.534 154.038 170.976 151.998L169.021 151.575C168.658 153.251 167.826 154.844 166.522 156.148L167.937 157.563ZM170.976 147.217C170.534 145.177 169.52 143.236 167.937 141.653L166.522 143.067C167.826 144.371 168.658 145.965 169.021 147.64L170.976 147.217ZM153.441 32.934C152.137 31.63 151.305 30.0363 150.942 28.3608L148.987 28.7841C149.429 30.8237 150.443 32.7646 152.027 34.3483L153.441 32.934ZM150.942 24.4258C151.305 22.7503 152.137 21.1566 153.441 19.8526L152.027 18.4384C150.443 20.022 149.429 21.963 148.987 24.0025L150.942 24.4258ZM153.441 19.8526C154.745 18.5486 156.339 17.7165 158.014 17.3537L157.591 15.399C155.551 15.8407 153.61 16.8547 152.027 18.4384L153.441 19.8526ZM161.949 17.3537C163.625 17.7165 165.218 18.5486 166.522 19.8526L167.937 18.4384C166.353 16.8547 164.412 15.8407 162.372 15.399L161.949 17.3537ZM166.522 19.8526C167.826 21.1566 168.658 22.7503 169.021 24.4258L170.976 24.0025C170.534 21.963 169.52 20.022 167.937 18.4384L166.522 19.8526ZM169.021 28.3608C168.658 30.0363 167.826 31.63 166.522 32.934L167.937 34.3483C169.52 32.7646 170.534 30.8237 170.976 28.7841L169.021 28.3608ZM166.522 32.934C165.218 34.2381 163.625 35.0701 161.949 35.4329L162.372 37.3876C164.412 36.9459 166.353 35.9319 167.937 34.3483L166.522 32.934ZM158.014 35.4329C156.339 35.0701 154.745 34.2381 153.441 32.934L152.027 34.3483C153.61 35.9319 155.551 36.9459 157.591 37.3876L158.014 35.4329ZM43.309 156.147C42.005 157.451 40.4113 158.283 38.7358 158.646L39.1591 160.601C41.1987 160.159 43.1396 159.145 44.7233 157.562L43.309 156.147ZM34.8008 158.646C33.1253 158.283 31.5316 157.451 30.2276 156.147L28.8134 157.562C30.397 159.145 32.338 160.159 34.3775 160.601L34.8008 158.646ZM30.2276 156.147C28.9236 154.843 28.0915 153.25 27.7287 151.574L25.774 151.997C26.2157 154.037 27.2297 155.978 28.8134 157.562L30.2276 156.147ZM27.7287 147.639C28.0915 145.964 28.9236 144.37 30.2276 143.066L28.8134 141.652C27.2297 143.235 26.2157 145.176 25.774 147.216L27.7287 147.639ZM30.2276 143.066C31.5316 141.762 33.1253 140.93 34.8008 140.567L34.3775 138.612C32.338 139.054 30.397 140.068 28.8134 141.652L30.2276 143.066ZM38.7358 140.567C40.4113 140.93 42.005 141.762 43.309 143.066L44.7233 141.652C43.1396 140.068 41.1987 139.054 39.1591 138.612L38.7358 140.567ZM43.309 143.066C44.6131 144.37 45.4451 145.964 45.8079 147.639L47.7626 147.216C47.3209 145.176 46.3069 143.235 44.7233 141.652L43.309 143.066ZM45.8079 151.574C45.4451 153.25 44.6131 154.843 43.309 156.147L44.7233 157.562C46.3069 155.978 47.3209 154.037 47.7626 151.997L45.8079 151.574Z" fill="#262626"/>
</svg>
