<svg width="34" height="34" viewBox="0 0 34 34" fill="none" xmlns="http://www.w3.org/2000/svg">
<path d="M13.9832 16.1627C13.9832 16.1627 16.9473 15.9375 16.9473 12.3908C16.9473 8.84706 14.9369 7.10014 11.8642 7.10014L1.33765 7.0835V26.6677H12.109C12.109 26.6677 17.4946 26.8381 17.4946 20.7925C17.4946 20.7925 17.8902 16.1627 13.9832 16.1627ZM5.25449 10.0211H10.6402C10.6402 10.0211 12.483 10.0515 12.483 12.4408C12.483 14.9172 10.6402 14.9172 10.6402 14.9172H5.25449V10.0211ZM11.1298 23.7301H5.25449V17.8548H11.1298C11.1298 17.8548 14.0674 17.8852 14.0674 20.7925C14.0674 23.6997 11.5528 23.7301 11.1298 23.7301Z" fill="#0F0F0F"/>
<path d="M25.8182 11.98C18.4613 11.98 18.4741 19.3241 18.4741 19.3241C18.4741 19.3241 17.9845 26.6682 25.8182 26.6682C25.8182 26.6682 32.6726 26.6682 32.6726 20.7929H28.7558C28.7558 20.7929 28.7558 23.7305 25.8182 23.7305C25.8182 23.7305 22.8805 23.7305 22.8805 19.8137C22.8805 19.8137 30.7142 19.8137 32.6726 19.8137C32.6726 17.8553 32.6726 11.98 25.8182 11.98ZM22.8805 17.8553C22.8805 17.8553 22.8159 14.9176 25.8182 14.9176C28.8194 14.9176 28.7558 17.8553 28.7558 17.8553H22.8805Z" fill="#0F0F0F"/>
<path d="M29.7353 9.04199H21.9016V11.0004H29.7353V9.04199Z" fill="#0F0F0F"/>
</svg>
