<svg width="34" height="34" viewBox="0 0 34 34" fill="none" xmlns="http://www.w3.org/2000/svg">
<path d="M12.2765 17.0001C12.2765 14.3922 14.3913 12.2775 17.0008 12.2775C19.6103 12.2775 21.7262 14.3922 21.7262 17.0001C21.7262 19.608 19.6103 21.7227 17.0008 21.7227C14.3913 21.7227 12.2765 19.608 12.2765 17.0001ZM9.72205 17.0001C9.72205 21.0178 12.9807 24.2745 17.0008 24.2745C21.0209 24.2745 24.2796 21.0178 24.2796 17.0001C24.2796 12.9825 21.0209 9.72573 17.0008 9.72573C12.9807 9.72573 9.72205 12.9825 9.72205 17.0001ZM22.8667 9.4373C22.8666 9.77353 22.9662 10.1022 23.153 10.3819C23.3398 10.6615 23.6054 10.8795 23.9161 11.0083C24.2269 11.1371 24.5689 11.1709 24.8989 11.1054C25.2289 11.04 25.5321 10.8782 25.77 10.6405C26.008 10.4029 26.1702 10.1 26.2359 9.7703C26.3017 9.44056 26.2681 9.09873 26.1395 8.78805C26.0109 8.47736 25.793 8.21177 25.5133 8.02486C25.2337 7.83795 24.9048 7.73812 24.5684 7.73798H24.5677C24.1168 7.73819 23.6843 7.91727 23.3654 8.23589C23.0465 8.55451 22.8671 8.98661 22.8667 9.4373ZM11.2741 28.5314C9.89204 28.4685 9.14087 28.2385 8.64168 28.0441C7.97987 27.7866 7.50767 27.4799 7.0112 26.9844C6.51473 26.4889 6.20742 26.0175 5.9509 25.3561C5.75631 24.8574 5.5261 24.1064 5.46328 22.7253C5.39456 21.232 5.38084 20.7834 5.38084 17.0002C5.38084 13.2171 5.39569 12.7697 5.46328 11.2752C5.52622 9.89403 5.75812 9.14456 5.9509 8.64442C6.20855 7.98301 6.51541 7.51109 7.0112 7.01492C7.50699 6.51875 7.97874 6.21161 8.64168 5.95525C9.14065 5.76077 9.89204 5.53071 11.2741 5.46792C12.7682 5.39924 13.2171 5.38553 17.0008 5.38553C20.7845 5.38553 21.2338 5.40038 22.7293 5.46792C24.1113 5.53082 24.8612 5.76259 25.3616 5.95525C26.0235 6.21161 26.4957 6.51943 26.9921 7.01492C27.4886 7.51041 27.7948 7.98301 28.0524 8.64442C28.247 9.14309 28.4772 9.89403 28.54 11.2752C28.6088 12.7697 28.6225 13.2171 28.6225 17.0002C28.6225 20.7834 28.6088 21.2307 28.54 22.7253C28.4771 24.1064 28.2458 24.8572 28.0524 25.3561C27.7948 26.0175 27.4879 26.4894 26.9921 26.9844C26.4963 27.4795 26.0235 27.7866 25.3616 28.0441C24.8627 28.2386 24.1113 28.4686 22.7293 28.5314C21.2351 28.6001 20.7863 28.6138 17.0008 28.6138C13.2154 28.6138 12.7678 28.6001 11.2741 28.5314ZM11.1567 2.91929C9.64766 2.98797 8.61651 3.2271 7.71599 3.5773C6.78338 3.93895 5.99388 4.42413 5.20495 5.21134C4.41602 5.99855 3.9318 6.78882 3.56993 7.72087C3.21953 8.62141 2.98025 9.65138 2.91153 11.1595C2.84167 12.67 2.82568 13.1529 2.82568 17.0001C2.82568 20.8473 2.84167 21.3302 2.91153 22.8407C2.98025 24.349 3.21953 25.3788 3.56993 26.2794C3.9318 27.2109 4.41613 28.002 5.20495 28.7889C5.99377 29.5758 6.78338 30.0603 7.71599 30.4229C8.61821 30.7731 9.64766 31.0123 11.1567 31.081C12.6689 31.1496 13.1513 31.1668 17.0008 31.1668C20.8503 31.1668 21.3335 31.1508 22.8449 31.081C24.3541 31.0123 25.3845 30.7731 26.2856 30.4229C27.2177 30.0603 28.0077 29.5761 28.7967 28.7889C29.5856 28.0017 30.0688 27.2109 30.4317 26.2794C30.7821 25.3788 31.0225 24.3489 31.0901 22.8407C31.1588 21.3291 31.1748 20.8473 31.1748 17.0001C31.1748 13.1529 31.1588 12.67 31.0901 11.1595C31.0214 9.65127 30.7821 8.62085 30.4317 7.72087C30.0688 6.78939 29.5844 5.99979 28.7967 5.21134C28.009 4.42288 27.2177 3.93895 26.2868 3.5773C25.3846 3.2271 24.354 2.98684 22.8461 2.91929C21.3347 2.85061 20.8515 2.8335 17.0019 2.8335C13.1524 2.8335 12.6689 2.84948 11.1567 2.91929Z" fill="#0F0F0F"/>
<path d="M12.2765 17.0001C12.2765 14.3922 14.3913 12.2775 17.0008 12.2775C19.6103 12.2775 21.7262 14.3922 21.7262 17.0001C21.7262 19.608 19.6103 21.7227 17.0008 21.7227C14.3913 21.7227 12.2765 19.608 12.2765 17.0001ZM9.72205 17.0001C9.72205 21.0178 12.9807 24.2745 17.0008 24.2745C21.0209 24.2745 24.2796 21.0178 24.2796 17.0001C24.2796 12.9825 21.0209 9.72573 17.0008 9.72573C12.9807 9.72573 9.72205 12.9825 9.72205 17.0001ZM22.8667 9.4373C22.8666 9.77353 22.9662 10.1022 23.153 10.3819C23.3398 10.6615 23.6054 10.8795 23.9161 11.0083C24.2269 11.1371 24.5689 11.1709 24.8989 11.1054C25.2289 11.04 25.5321 10.8782 25.77 10.6405C26.008 10.4029 26.1702 10.1 26.2359 9.7703C26.3017 9.44056 26.2681 9.09873 26.1395 8.78805C26.0109 8.47736 25.793 8.21177 25.5133 8.02486C25.2337 7.83795 24.9048 7.73812 24.5684 7.73798H24.5677C24.1168 7.73819 23.6843 7.91727 23.3654 8.23589C23.0465 8.55451 22.8671 8.98661 22.8667 9.4373ZM11.2741 28.5314C9.89204 28.4685 9.14087 28.2385 8.64168 28.0441C7.97987 27.7866 7.50767 27.4799 7.0112 26.9844C6.51473 26.4889 6.20742 26.0175 5.9509 25.3561C5.75631 24.8574 5.5261 24.1064 5.46328 22.7253C5.39456 21.232 5.38084 20.7834 5.38084 17.0002C5.38084 13.2171 5.39569 12.7697 5.46328 11.2752C5.52622 9.89403 5.75812 9.14456 5.9509 8.64442C6.20855 7.98301 6.51541 7.51109 7.0112 7.01492C7.50699 6.51875 7.97874 6.21161 8.64168 5.95525C9.14065 5.76077 9.89204 5.53071 11.2741 5.46792C12.7682 5.39924 13.2171 5.38553 17.0008 5.38553C20.7845 5.38553 21.2338 5.40038 22.7293 5.46792C24.1113 5.53082 24.8612 5.76259 25.3616 5.95525C26.0235 6.21161 26.4957 6.51943 26.9921 7.01492C27.4886 7.51041 27.7948 7.98301 28.0524 8.64442C28.247 9.14309 28.4772 9.89403 28.54 11.2752C28.6088 12.7697 28.6225 13.2171 28.6225 17.0002C28.6225 20.7834 28.6088 21.2307 28.54 22.7253C28.4771 24.1064 28.2458 24.8572 28.0524 25.3561C27.7948 26.0175 27.4879 26.4894 26.9921 26.9844C26.4963 27.4795 26.0235 27.7866 25.3616 28.0441C24.8627 28.2386 24.1113 28.4686 22.7293 28.5314C21.2351 28.6001 20.7863 28.6138 17.0008 28.6138C13.2154 28.6138 12.7678 28.6001 11.2741 28.5314ZM11.1567 2.91929C9.64766 2.98797 8.61651 3.2271 7.71599 3.5773C6.78338 3.93895 5.99388 4.42413 5.20495 5.21134C4.41602 5.99855 3.9318 6.78882 3.56993 7.72087C3.21953 8.62141 2.98025 9.65138 2.91153 11.1595C2.84167 12.67 2.82568 13.1529 2.82568 17.0001C2.82568 20.8473 2.84167 21.3302 2.91153 22.8407C2.98025 24.349 3.21953 25.3788 3.56993 26.2794C3.9318 27.2109 4.41613 28.002 5.20495 28.7889C5.99377 29.5758 6.78338 30.0603 7.71599 30.4229C8.61821 30.7731 9.64766 31.0123 11.1567 31.081C12.6689 31.1496 13.1513 31.1668 17.0008 31.1668C20.8503 31.1668 21.3335 31.1508 22.8449 31.081C24.3541 31.0123 25.3845 30.7731 26.2856 30.4229C27.2177 30.0603 28.0077 29.5761 28.7967 28.7889C29.5856 28.0017 30.0688 27.2109 30.4317 26.2794C30.7821 25.3788 31.0225 24.3489 31.0901 22.8407C31.1588 21.3291 31.1748 20.8473 31.1748 17.0001C31.1748 13.1529 31.1588 12.67 31.0901 11.1595C31.0214 9.65127 30.7821 8.62085 30.4317 7.72087C30.0688 6.78939 29.5844 5.99979 28.7967 5.21134C28.009 4.42288 27.2177 3.93895 26.2868 3.5773C25.3846 3.2271 24.354 2.98684 22.8461 2.91929C21.3347 2.85061 20.8515 2.8335 17.0019 2.8335C13.1524 2.8335 12.6689 2.84948 11.1567 2.91929Z" fill="#0F0F0F"/>
</svg>
