<svg width="34" height="34" viewBox="0 0 34 34" fill="none" xmlns="http://www.w3.org/2000/svg">
<path d="M32.3289 7.31323C31.3283 7.74387 30.2763 8.04374 29.199 8.20544C29.7026 8.11909 30.4438 7.21249 30.7388 6.84554C31.1869 6.29202 31.5285 5.66013 31.7461 4.98197C31.7461 4.93161 31.7965 4.85965 31.7461 4.82368C31.7207 4.80982 31.6923 4.80256 31.6633 4.80256C31.6344 4.80256 31.606 4.80982 31.5806 4.82368C30.4108 5.45716 29.1658 5.94065 27.8751 6.26272C27.8301 6.27647 27.7822 6.2777 27.7366 6.26629C27.6909 6.25488 27.6493 6.23126 27.616 6.19797C27.5156 6.07833 27.4074 5.96537 27.2922 5.85979C26.7658 5.38811 26.1685 5.00205 25.5222 4.71575C24.6498 4.35784 23.7075 4.20284 22.7664 4.26245C21.8533 4.32012 20.9618 4.56504 20.1474 4.98197C19.3454 5.42155 18.6405 6.01872 18.0752 6.73761C17.4805 7.47753 17.0511 8.33623 16.816 9.25594C16.6221 10.1308 16.6001 11.035 16.7512 11.9182C16.7512 12.0693 16.7512 12.0909 16.6217 12.0693C11.4915 11.3138 7.2823 9.49338 3.84298 5.58637C3.69188 5.41369 3.61274 5.41369 3.49042 5.58637C1.99381 7.86006 2.72053 11.4577 4.59129 13.2349C4.84312 13.4723 5.10215 13.7026 5.37557 13.9184C4.51784 13.8576 3.68105 13.6251 2.9148 13.2349C2.7709 13.1414 2.69175 13.1917 2.68455 13.3644C2.66416 13.6038 2.66416 13.8445 2.68455 14.0839C2.83469 15.2313 3.28685 16.3182 3.9948 17.2335C4.70276 18.1487 5.6411 18.8596 6.71388 19.2933C6.9754 19.4053 7.2479 19.4897 7.52694 19.5451C6.73289 19.7014 5.9185 19.7258 5.11654 19.6171C4.94385 19.5811 4.8791 19.6746 4.94385 19.8401C6.00155 22.7182 8.29683 23.596 9.98052 24.0853C10.2108 24.1213 10.441 24.1213 10.7 24.1789C10.7 24.1789 10.7 24.1788 10.6569 24.222C10.1604 25.1286 8.15293 25.7402 7.23194 26.0568C5.5509 26.6606 3.75859 26.8914 1.97942 26.7332C1.69881 26.69 1.63405 26.6972 1.5621 26.7332C1.49014 26.7691 1.5621 26.8483 1.64124 26.9202C2.00101 27.1577 2.36077 27.3663 2.73492 27.5678C3.84877 28.1753 5.02634 28.6579 6.24619 29.0069C12.5636 30.7481 19.6725 29.4673 24.4141 24.7545C28.1413 21.0561 29.4508 15.9547 29.4508 10.8461C29.4508 10.6518 29.6883 10.5367 29.825 10.436C30.7679 9.70125 31.5992 8.83357 32.2929 7.86006C32.4131 7.71495 32.4747 7.53018 32.4656 7.34201C32.4656 7.23408 32.4656 7.25567 32.3289 7.31323Z" fill="#0F0F0F"/>
</svg>
