<svg width="36" height="34" viewBox="0 0 36 34" fill="none" xmlns="http://www.w3.org/2000/svg">
<path d="M17.6016 32.5837C8.99636 32.5837 2 25.5995 2 17.0064C2 8.40116 8.99636 1.41699 17.6016 1.41699C26.2069 1.41699 33.2033 8.40116 33.2033 16.9942C33.2033 25.5873 26.2069 32.5837 17.6016 32.5837ZM30.7533 19.1273C30.3023 18.981 26.6335 17.8962 22.4528 18.5544C24.1958 23.3324 24.9027 27.2328 25.0368 28.0373C28.0352 26.0261 30.1683 22.8327 30.7533 19.1273ZM22.8062 29.2683C22.6112 28.0982 21.8311 24.0272 19.9663 19.176C19.9419 19.1882 19.9053 19.2004 19.8809 19.2004C12.3605 21.821 9.66674 27.0256 9.42296 27.5132C11.6779 29.2683 14.5179 30.3166 17.6016 30.3166C19.4421 30.3288 21.2095 29.9509 22.8062 29.2683ZM7.70435 25.9164C8.00907 25.4045 11.6657 19.3589 18.5402 17.1283C18.7108 17.0674 18.8936 17.0186 19.0643 16.9699C18.7352 16.2142 18.3695 15.4585 17.9795 14.7149C11.3244 16.7017 4.86436 16.6164 4.2793 16.6042C4.2793 16.7383 4.26711 16.8724 4.26711 17.0064C4.2793 20.4315 5.57131 23.5518 7.70435 25.9164ZM4.55964 14.2883C5.15689 14.3005 10.6418 14.3249 16.8825 12.6672C14.6763 8.74245 12.2873 5.45148 11.946 4.97611C8.20409 6.7313 5.42505 10.1685 4.55964 14.2883ZM14.4813 4.07414C14.847 4.5617 17.2725 7.85266 19.4543 11.8628C24.1958 10.0832 26.1947 7.40168 26.4385 7.06039C24.0861 4.97611 20.9901 3.70848 17.6016 3.70848C16.529 3.70848 15.4808 3.84256 14.4813 4.07414ZM27.9133 8.59618C27.633 8.97403 25.4024 11.8384 20.4782 13.8495C20.7829 14.4834 21.0876 15.1294 21.368 15.7754C21.4655 16.007 21.563 16.2385 21.6605 16.4579C26.0972 15.8973 30.4974 16.7992 30.9361 16.8845C30.8996 13.752 29.7782 10.8633 27.9133 8.59618Z" fill="#0F0F0F"/>
</svg>
