<svg width="94" height="94" viewBox="0 0 94 94" fill="none" xmlns="http://www.w3.org/2000/svg">
<rect x="1" y="1" width="92" height="92" rx="46" stroke="#262626" stroke-width="2" stroke-dasharray="16 6"/>
<path d="M79 47L94 47" stroke="#262626" stroke-width="3"/>
<path d="M0 47L15 47" stroke="#262626" stroke-width="3"/>
<path d="M47 15V1.19209e-07" stroke="#262626" stroke-width="3"/>
<path d="M47 94V79" stroke="#262626" stroke-width="3"/>
<rect x="14" y="14" width="66" height="66" rx="33" fill="#1A1A1A"/>
<path d="M42.967 37.6618C44.7614 34.4428 45.6587 32.8333 47 32.8333C48.3414 32.8333 49.2386 34.4428 51.0331 37.6618L51.4973 38.4946C52.0072 39.4094 52.2622 39.8668 52.6597 40.1685C53.0572 40.4703 53.5523 40.5823 54.5425 40.8064L55.444 41.0104C58.9286 41.7988 60.6709 42.193 61.0854 43.5259C61.4999 44.8589 60.3121 46.2478 57.9366 49.0257L57.322 49.7444C56.6469 50.5338 56.3094 50.9285 56.1576 51.4167C56.0057 51.905 56.0568 52.4316 56.1588 53.4848L56.2517 54.4437C56.6109 58.15 56.7905 60.0031 55.7052 60.827C54.62 61.6508 52.9888 60.8997 49.7262 59.3975L48.8821 59.0088C47.955 58.582 47.4914 58.3685 47 58.3685C46.5087 58.3685 46.0451 58.582 45.118 59.0088L44.2739 59.3975C41.0113 60.8997 39.38 61.6508 38.2948 60.827C37.2096 60.0031 37.3892 58.15 37.7484 54.4437L37.8413 53.4848C37.9433 52.4316 37.9944 51.905 37.8425 51.4167C37.6907 50.9285 37.3531 50.5338 36.6781 49.7444L36.0635 49.0257C33.688 46.2478 32.5002 44.8589 32.9147 43.5259C33.3292 42.193 35.0715 41.7988 38.5561 41.0104L39.4575 40.8064C40.4477 40.5823 40.9428 40.4703 41.3404 40.1685C41.7379 39.8668 41.9929 39.4094 42.5028 38.4946L42.967 37.6618Z" fill="#C2B4A3"/>
</svg>
