<svg width="154" height="172" viewBox="0 0 154 172" fill="none" xmlns="http://www.w3.org/2000/svg">
<path d="M74.3199 0.435851C87.3031 -22.8547 93.7947 -34.5 103.5 -34.5C113.205 -34.5 119.697 -22.8547 132.68 0.435832L136.039 6.46138C139.728 13.0798 141.573 16.3891 144.449 18.5725C147.326 20.756 150.908 21.5665 158.072 23.1875L164.595 24.6633C189.806 30.3677 202.412 33.2199 205.411 42.8642C208.411 52.5086 199.817 62.558 182.629 82.6567L178.182 87.8565C173.298 93.568 170.856 96.4237 169.757 99.9566C168.659 103.49 169.028 107.3 169.766 114.92L170.439 121.858C173.037 148.674 174.337 162.082 166.485 168.042C158.633 174.003 146.83 168.568 123.224 157.7L117.117 154.888C110.409 151.799 107.055 150.255 103.5 150.255C99.9447 150.255 96.5907 151.799 89.8827 154.888L83.7757 157.699C60.1699 168.568 48.3671 174.003 40.5153 168.042C32.6635 162.082 33.9628 148.674 36.5613 121.858L37.2336 114.92C37.972 107.3 38.3412 103.49 37.2426 99.9566C36.144 96.4237 33.7019 93.568 28.8177 87.8565L24.371 82.6567C7.1833 62.558 -1.41055 52.5086 1.58857 42.8642C4.58768 33.2199 17.1935 30.3677 42.4052 24.6633L48.9278 23.1875C56.0922 21.5665 59.6744 20.756 62.5507 18.5725C65.4269 16.3891 67.2716 13.0798 70.961 6.4614L74.3199 0.435851Z" stroke="#262626" stroke-width="2" stroke-dasharray="16 6"/>
</svg>
