<svg width="154" height="180" viewBox="0 0 154 180" fill="none" xmlns="http://www.w3.org/2000/svg">
<path d="M16.6908 1.8359C16.7246 2.59941 16.7579 3.35491 16.7876 4.10124C17.4786 21.5082 19.3482 41.8626 24.9523 60.8068L16.8162 56.2867C9.10395 52.002 5.24776 49.8596 3.12408 46.2505C1.00039 42.6413 1.00027 38.23 1.00003 29.4074L1.00001 28.664C0.999723 17.967 0.999582 12.6185 3.90174 8.59183C6.24037 5.34705 9.98932 3.61871 16.6672 1.29981M16.6908 1.8359C16.6829 1.65764 16.675 1.47893 16.6672 1.29981M16.6908 1.8359L16.6672 1.29981M190.312 1.83589C190.279 2.59941 190.245 3.35491 190.216 4.10124C189.525 21.5075 187.655 41.8608 182.052 60.8044L190.183 56.2867C197.895 52.002 201.752 49.8596 203.875 46.2505C205.999 42.6413 205.999 38.23 205.999 29.4074L205.999 28.664C206 17.967 206 12.6185 203.098 8.59183C200.759 5.34765 197.011 3.61934 190.336 1.30108M190.312 1.83589C190.32 1.65805 190.328 1.47978 190.336 1.30108M190.312 1.83589L190.336 1.30108M32.1505 3.49131C31.6351 -9.49025 31.3774 -15.981 36.2535 -21.9865C41.1296 -27.9919 46.9656 -28.9766 58.6376 -30.9459C70.1592 -32.8898 85.2202 -34.5 103.502 -34.5C121.783 -34.5 136.844 -32.8898 148.366 -30.9459C160.038 -28.9766 165.874 -27.9919 170.75 -21.9865C175.626 -15.981 175.368 -9.49025 174.853 3.49131C173.083 48.0582 163.466 103.724 111.188 108.648V144.875H125.847C130.733 144.875 134.94 148.324 135.898 153.115L137.838 162.812H165C169.246 162.812 172.688 166.254 172.688 170.5C172.688 174.746 169.246 178.188 165 178.188H42C37.7543 178.188 34.3125 174.746 34.3125 170.5C34.3125 166.254 37.7543 162.812 42 162.812H69.1625L71.102 153.115C72.0603 148.324 76.267 144.875 81.153 144.875H95.8125V108.648C43.5371 103.722 33.9198 48.0573 32.1505 3.49131ZM112.254 6.73075L113.262 8.53841C114.369 10.524 114.922 11.5167 115.785 12.1718C116.648 12.8268 117.722 13.0699 119.872 13.5562L121.828 13.999C129.392 15.7103 133.174 16.566 134.073 19.4593C134.973 22.3526 132.395 25.3674 127.239 31.397L125.905 32.957C124.439 34.6704 123.707 35.5271 123.377 36.587C123.048 37.6469 123.158 38.7899 123.38 41.076L123.582 43.1573C124.361 51.2021 124.751 55.2245 122.395 57.0127C120.04 58.8008 116.499 57.1705 109.417 53.9098L107.585 53.0663C105.573 52.1397 104.567 51.6764 103.5 51.6764C102.433 51.6764 101.427 52.1397 99.4148 53.0663L97.5827 53.9098C90.501 57.1705 86.9601 58.8008 84.6046 57.0127C82.249 55.2245 82.6388 51.2021 83.4184 43.1573L83.6201 41.076C83.8416 38.7899 83.9524 37.6469 83.6228 36.587C83.2932 35.5271 82.5606 34.6704 81.0953 32.957L79.7613 31.397C74.605 25.3674 72.0268 22.3526 72.9266 19.4593C73.8263 16.566 77.6081 15.7103 85.1716 13.999L87.1284 13.5562C89.2777 13.0699 90.3523 12.8268 91.2152 12.1718C92.0781 11.5167 92.6315 10.5239 93.7383 8.53842L94.746 6.73076C98.6409 -0.256396 100.588 -3.75 103.5 -3.75C106.412 -3.75 108.359 -0.256414 112.254 6.73075Z" stroke="#262626" stroke-width="2" stroke-linecap="round" stroke-dasharray="16 6"/>
</svg>
