<svg width="94" height="94" viewBox="0 0 94 94" fill="none" xmlns="http://www.w3.org/2000/svg">
<rect x="1" y="1" width="92" height="92" rx="46" stroke="#262626" stroke-width="2" stroke-dasharray="16 6"/>
<path d="M79 47L94 47" stroke="#262626" stroke-width="3"/>
<path d="M0 47L15 47" stroke="#262626" stroke-width="3"/>
<path d="M47 15V1.19209e-07" stroke="#262626" stroke-width="3"/>
<path d="M47 94V79" stroke="#262626" stroke-width="3"/>
<rect x="14" y="14" width="66" height="66" rx="33" fill="#1A1A1A"/>
<path d="M61.1666 41.5634L61.1666 41.6661C61.1666 42.8855 61.1666 43.4952 60.8731 43.994C60.5795 44.4928 60.0466 44.7889 58.9806 45.3811L57.8568 46.0055C58.6312 43.3873 58.8896 40.5742 58.9851 38.1685C58.9892 38.0654 58.9938 37.9609 58.9985 37.8554L59.0018 37.7815C59.9244 38.1019 60.4424 38.3408 60.7656 38.7892C61.1667 39.3457 61.1667 40.0849 61.1666 41.5634Z" fill="#C2B4A3"/>
<path d="M32.8334 41.5634L32.8334 41.6661C32.8334 42.8855 32.8334 43.4952 33.1269 43.994C33.4205 44.4928 33.9534 44.7889 35.0194 45.3811L36.1438 46.0059C35.3693 43.3876 35.1109 40.5743 35.0154 38.1685C35.0113 38.0654 35.0067 37.9609 35.002 37.8554L34.9988 37.7813C34.0758 38.1018 33.5577 38.3407 33.2344 38.7892C32.8333 39.3457 32.8333 40.0849 32.8334 41.5634Z" fill="#C2B4A3"/>
<path fill-rule="evenodd" clip-rule="evenodd" d="M47.0003 32.8334C49.5269 32.8334 51.6086 33.0559 53.201 33.3246C54.8142 33.5968 55.6208 33.7329 56.2947 34.5629C56.9686 35.3929 56.933 36.29 56.8618 38.0842C56.6172 44.2439 55.288 51.9375 48.0625 52.6181V57.625H50.0887C50.764 57.625 51.3454 58.1017 51.4778 58.7639L51.7459 60.1042H55.5C56.0868 60.1042 56.5625 60.5799 56.5625 61.1667C56.5625 61.7535 56.0868 62.2292 55.5 62.2292H38.5C37.9132 62.2292 37.4375 61.7535 37.4375 61.1667C37.4375 60.5799 37.9132 60.1042 38.5 60.1042H42.2542L42.5223 58.7639C42.6547 58.1017 43.2361 57.625 43.9114 57.625H45.9375V52.6181C38.7125 51.9372 37.3833 44.2437 37.1387 38.0842C37.0675 36.29 37.0319 35.3929 37.7058 34.5629C38.3797 33.7329 39.1863 33.5968 40.7995 33.3246C42.392 33.0559 44.4736 32.8334 47.0003 32.8334ZM48.3492 38.7818L48.2099 38.5319C47.6716 37.5662 47.4025 37.0834 47 37.0834C46.5976 37.0834 46.3285 37.5662 45.7901 38.5319L45.6509 38.7818C45.4979 39.0562 45.4214 39.1934 45.3021 39.2839C45.1829 39.3745 45.0344 39.4081 44.7373 39.4753L44.4668 39.5365C43.4215 39.773 42.8988 39.8913 42.7744 40.2912C42.6501 40.691 43.0064 41.1077 43.7191 41.9411L43.9035 42.1567C44.106 42.3935 44.2072 42.5119 44.2528 42.6584C44.2983 42.8049 44.283 42.9629 44.2524 43.2788L44.2245 43.5665C44.1168 44.6784 44.0629 45.2343 44.3885 45.4815C44.714 45.7286 45.2034 45.5033 46.1822 45.0526L46.4354 44.936C46.7136 44.808 46.8526 44.7439 47 44.7439C47.1475 44.7439 47.2865 44.808 47.5647 44.936L47.8179 45.0526C48.7966 45.5033 49.286 45.7286 49.6116 45.4815C49.9372 45.2343 49.8833 44.6784 49.7755 43.5665L49.7477 43.2788C49.7171 42.9629 49.7017 42.8049 49.7473 42.6584C49.7929 42.5119 49.8941 42.3935 50.0966 42.1567L50.281 41.9411C50.9937 41.1077 51.35 40.691 51.2256 40.2912C51.1013 39.8913 50.5786 39.773 49.5332 39.5365L49.2628 39.4753C48.9657 39.4081 48.8172 39.3745 48.6979 39.2839C48.5787 39.1934 48.5022 39.0562 48.3492 38.7818Z" fill="#C2B4A3"/>
</svg>
