<svg width="94" height="94" viewBox="0 0 94 94" fill="none" xmlns="http://www.w3.org/2000/svg">
<rect x="1" y="1" width="92" height="92" rx="46" stroke="#262626" stroke-width="2" stroke-dasharray="16 6"/>
<path d="M79 47L94 47" stroke="#262626" stroke-width="3"/>
<path d="M0 47L15 47" stroke="#262626" stroke-width="3"/>
<path d="M47 15V1.19209e-07" stroke="#262626" stroke-width="3"/>
<path d="M47 94V79" stroke="#262626" stroke-width="3"/>
<rect x="14" y="14" width="66" height="66" rx="33" fill="#1A1A1A"/>
<path fill-rule="evenodd" clip-rule="evenodd" d="M49.0335 38.1927C47.7652 37.5012 46.2325 37.5012 44.9643 38.1927L38.1724 41.8961C36.8068 42.6408 35.957 44.072 35.957 45.6275V52.6225C35.957 54.1779 36.8068 55.6092 38.1724 56.3538L44.9642 60.0572C46.2325 60.7488 47.7652 60.7488 49.0335 60.0572L55.8253 56.3538C57.1909 55.6092 58.0407 54.178 58.0407 52.6225V45.6275C58.0407 44.072 57.1909 42.6408 55.8253 41.8961L49.0335 38.1927ZM46.9991 44.875C46.5967 44.875 46.3276 45.3579 45.7892 46.3236L45.65 46.5734C45.497 46.8478 45.4205 46.985 45.3012 47.0756C45.182 47.1661 45.0335 47.1997 44.7364 47.2669L44.4659 47.3281C43.4206 47.5646 42.8979 47.6829 42.7735 48.0828C42.6492 48.4827 43.0055 48.8994 43.7182 49.7327L43.9026 49.9483C44.1051 50.1851 44.2063 50.3035 44.2519 50.45C44.2974 50.5965 44.2821 50.7545 44.2515 51.0705L44.2236 51.3581C44.1159 52.47 44.062 53.0259 44.3876 53.2731C44.7131 53.5202 45.2025 53.2949 46.1813 52.8442L46.4345 52.7277C46.7127 52.5996 46.8517 52.5356 46.9991 52.5356C47.1466 52.5356 47.2856 52.5996 47.5638 52.7277L47.817 52.8442C48.7958 53.2949 49.2851 53.5202 49.6107 53.2731C49.9363 53.0259 49.8824 52.47 49.7747 51.3581L49.7468 51.0705C49.7162 50.7545 49.7009 50.5965 49.7464 50.45C49.792 50.3035 49.8932 50.1851 50.0957 49.9483L50.2801 49.7327C50.9928 48.8994 51.3491 48.4827 51.2247 48.0828C51.1004 47.6829 50.5777 47.5646 49.5323 47.3281L49.2619 47.2669C48.9648 47.1997 48.8163 47.1661 48.697 47.0756C48.5778 46.985 48.5013 46.8478 48.3483 46.5734L48.2091 46.3236C47.6707 45.3579 47.4016 44.875 46.9991 44.875Z" fill="#C2B4A3"/>
<path d="M45.5827 32.8333H48.416C51.0873 32.8333 52.423 32.8333 53.2528 33.6632C54.0827 34.493 54.0827 35.8287 54.0827 38.5V38.5254L50.051 36.327C48.1486 35.2897 45.8495 35.2897 43.9472 36.327L39.916 38.5251V38.5C39.916 35.8287 39.916 34.493 40.7459 33.6632C41.5757 32.8333 42.9114 32.8333 45.5827 32.8333Z" fill="#C2B4A3"/>
</svg>
