<svg width="94" height="94" viewBox="0 0 94 94" fill="none" xmlns="http://www.w3.org/2000/svg">
<rect x="1" y="1" width="92" height="92" rx="46" stroke="#262626" stroke-width="2" stroke-dasharray="16 6"/>
<path d="M79 47L94 47" stroke="#262626" stroke-width="3"/>
<path d="M0 47L15 47" stroke="#262626" stroke-width="3"/>
<path d="M47 15V1.19209e-07" stroke="#262626" stroke-width="3"/>
<path d="M47 94V79" stroke="#262626" stroke-width="3"/>
<rect x="14" y="14" width="66" height="66" rx="33" fill="#1A1A1A"/>
<path d="M32.834 39.2083C32.834 36.2031 32.834 34.7005 33.7676 33.7669C34.7012 32.8333 36.2038 32.8333 39.209 32.8333C42.2142 32.8333 43.7168 32.8333 44.6504 33.7669C45.584 34.7005 45.584 36.2031 45.584 39.2083C45.584 42.2135 45.584 43.7161 44.6504 44.6497C43.7168 45.5833 42.2142 45.5833 39.209 45.5833C36.2038 45.5833 34.7012 45.5833 33.7676 44.6497C32.834 43.7161 32.834 42.2135 32.834 39.2083Z" fill="#C2B4A3"/>
<path d="M48.416 54.7917C48.416 51.7865 48.416 50.2839 49.3496 49.3503C50.2832 48.4167 51.7858 48.4167 54.791 48.4167C57.7962 48.4167 59.2988 48.4167 60.2324 49.3503C61.166 50.2839 61.166 51.7865 61.166 54.7917C61.166 57.7969 61.166 59.2995 60.2324 60.2331C59.2988 61.1667 57.7962 61.1667 54.791 61.1667C51.7858 61.1667 50.2832 61.1667 49.3496 60.2331C48.416 59.2995 48.416 57.7969 48.416 54.7917Z" fill="#C2B4A3"/>
<path d="M32.834 54.7917C32.834 51.7865 32.834 50.2839 33.7676 49.3503C34.7012 48.4167 36.2038 48.4167 39.209 48.4167C42.2142 48.4167 43.7168 48.4167 44.6504 49.3503C45.584 50.2839 45.584 51.7865 45.584 54.7917C45.584 57.7969 45.584 59.2995 44.6504 60.2331C43.7168 61.1667 42.2142 61.1667 39.209 61.1667C36.2038 61.1667 34.7012 61.1667 33.7676 60.2331C32.834 59.2995 32.834 57.7969 32.834 54.7917Z" fill="#C2B4A3"/>
<path d="M48.416 39.2083C48.416 36.2031 48.416 34.7005 49.3496 33.7669C50.2832 32.8333 51.7858 32.8333 54.791 32.8333C57.7962 32.8333 59.2988 32.8333 60.2324 33.7669C61.166 34.7005 61.166 36.2031 61.166 39.2083C61.166 42.2135 61.166 43.7161 60.2324 44.6497C59.2988 45.5833 57.7962 45.5833 54.791 45.5833C51.7858 45.5833 50.2832 45.5833 49.3496 44.6497C48.416 43.7161 48.416 42.2135 48.416 39.2083Z" fill="#C2B4A3"/>
</svg>
