<svg width="94" height="94" viewBox="0 0 94 94" fill="none" xmlns="http://www.w3.org/2000/svg">
<rect x="1" y="1" width="92" height="92" rx="46" stroke="#262626" stroke-width="2" stroke-dasharray="16 6"/>
<path d="M79 47L94 47" stroke="#262626" stroke-width="3"/>
<path d="M0 47L15 47" stroke="#262626" stroke-width="3"/>
<path d="M47 15V1.19209e-07" stroke="#262626" stroke-width="3"/>
<path d="M47 94V79" stroke="#262626" stroke-width="3"/>
<rect x="14" y="14" width="66" height="66" rx="33" fill="#1A1A1A"/>
<path d="M44.1673 35.6667H49.834C55.1766 35.6667 57.8479 35.6667 59.5076 37.3264C60.7026 38.5214 61.0372 40.2409 61.1309 43.1042H32.8704C32.9641 40.2409 33.2987 38.5214 34.4937 37.3264C36.1534 35.6667 38.8247 35.6667 44.1673 35.6667Z" fill="#C2B4A3"/>
<path fill-rule="evenodd" clip-rule="evenodd" d="M61.1666 48.1582L60.5879 47.5795C59.3431 46.3347 57.3249 46.3347 56.0801 47.5795L54.9447 48.7148C54.4917 47.5062 53.3258 46.6459 51.959 46.6459C50.1986 46.6459 48.7715 48.0729 48.7715 49.8334V52.3321C48.0775 52.4093 47.4039 52.7139 46.8717 53.2461C45.627 54.4909 45.627 56.5091 46.8717 57.7539L47.4512 58.3334H44.1673C38.8247 58.3334 36.1534 58.3334 34.4937 56.6736C32.834 55.0139 32.834 52.3426 32.834 47C32.834 46.3739 32.834 45.7846 32.8367 45.2292H61.1646C61.1673 45.7846 61.1673 46.3739 61.1673 47C61.1673 47.4009 61.1673 47.7867 61.1666 48.1582ZM38.5007 51.6042C37.9138 51.6042 37.4382 52.0799 37.4382 52.6667C37.4382 53.2535 37.9138 53.7292 38.5007 53.7292H44.1673C44.7541 53.7292 45.2298 53.2535 45.2298 52.6667C45.2298 52.0799 44.7541 51.6042 44.1673 51.6042H38.5007Z" fill="#C2B4A3"/>
<path fill-rule="evenodd" clip-rule="evenodd" d="M51.959 48.7709C52.5458 48.7709 53.0215 49.2466 53.0215 49.8334V55.7683L54.041 54.7487C54.4559 54.3338 55.1287 54.3338 55.5436 54.7487C55.9586 55.1637 55.9586 55.8364 55.5436 56.2513L52.7103 59.0847C52.2954 59.4996 51.6226 59.4996 51.2077 59.0847L48.3744 56.2513C47.9594 55.8364 47.9594 55.1637 48.3744 54.7487C48.7893 54.3338 49.462 54.3338 49.877 54.7487L50.8965 55.7683V49.8334C50.8965 49.2466 51.3722 48.7709 51.959 48.7709ZM57.5827 49.0821C57.9976 48.6671 58.6704 48.6671 59.0853 49.0821L61.9186 51.9154C62.3336 52.3303 62.3336 53.0031 61.9186 53.418C61.5037 53.8329 60.8309 53.8329 60.416 53.418L59.3965 52.3985V58.3334C59.3965 58.9202 58.9208 59.3959 58.334 59.3959C57.7472 59.3959 57.2715 58.9202 57.2715 58.3334V52.3985L56.252 53.418C55.837 53.8329 55.1643 53.8329 54.7493 53.418C54.3344 53.0031 54.3344 52.3303 54.7493 51.9154L57.5827 49.0821Z" fill="#C2B4A3"/>
</svg>
