<svg width="94" height="94" viewBox="0 0 94 94" fill="none" xmlns="http://www.w3.org/2000/svg">
<rect x="1" y="1" width="92" height="92" rx="46" stroke="#262626" stroke-width="2" stroke-dasharray="16 6"/>
<path d="M79 47L94 47" stroke="#262626" stroke-width="3"/>
<path d="M0 47L15 47" stroke="#262626" stroke-width="3"/>
<path d="M47 15V1.19209e-07" stroke="#262626" stroke-width="3"/>
<path d="M47 94V79" stroke="#262626" stroke-width="3"/>
<rect x="14" y="14" width="66" height="66" rx="33" fill="#1A1A1A"/>
<path d="M35.4464 35.4465C33.8512 37.0417 33.8512 39.628 35.4464 41.2232L37.6957 43.4725C37.7126 43.453 37.7303 43.434 37.7489 43.4154L43.4155 37.7487C43.434 37.7302 43.453 37.7126 43.4725 37.6957L41.2232 35.4465C39.628 33.8512 37.0416 33.8512 35.4464 35.4465Z" fill="#C2B4A3"/>
<path d="M44.9711 39.1944C44.9543 39.2138 44.9366 39.2328 44.9181 39.2513L39.2515 44.918C39.2329 44.9366 39.2139 44.9543 39.1943 44.9712L52.7768 58.5536C54.372 60.1488 56.9584 60.1488 58.5536 58.5536C60.1488 56.9584 60.1488 54.372 58.5536 52.7768L44.9711 39.1944Z" fill="#C2B4A3"/>
<path d="M52.8084 33.2686C53.0364 32.6883 53.8546 32.6883 54.0826 33.2686L54.6923 34.8202C54.7619 34.9974 54.9016 35.1376 55.0781 35.2075L56.624 35.8194C57.2021 36.0483 57.2021 36.8695 56.624 37.0983L55.0781 37.7103C54.9016 37.7801 54.7619 37.9204 54.6923 38.0975L54.0826 39.6492C53.8546 40.2294 53.0364 40.2294 52.8084 39.6492L52.1987 38.0975C52.1291 37.9204 51.9893 37.7801 51.8129 37.7103L50.2669 37.0983C49.6888 36.8695 49.6888 36.0483 50.2669 35.8194L51.8129 35.2075C51.9893 35.1376 52.1291 34.9974 52.1987 34.8202L52.8084 33.2686Z" fill="#C2B4A3"/>
<path d="M58.2868 42.9334C58.5148 42.3532 59.333 42.3532 59.561 42.9334L59.7833 43.4992C59.8529 43.6763 59.9926 43.8166 60.1691 43.8864L60.7328 44.1096C61.3109 44.3384 61.3109 45.1596 60.7328 45.3884L60.1691 45.6116C59.9926 45.6814 59.8529 45.8217 59.7833 45.9988L59.561 46.5645C59.333 47.1448 58.5148 47.1448 58.2868 46.5645L58.0645 45.9988C57.9949 45.8217 57.8552 45.6814 57.6787 45.6116L57.1151 45.3884C56.537 45.1596 56.537 44.3384 57.1151 44.1096L57.6787 43.8864C57.8552 43.8166 57.9949 43.6763 58.0645 43.4992L58.2868 42.9334Z" fill="#C2B4A3"/>
<path d="M37.272 51.6852C37.5 51.105 38.3182 51.105 38.5462 51.6852L38.7685 52.251C38.8381 52.4281 38.9778 52.5683 39.1543 52.6382L39.718 52.8613C40.2961 53.0902 40.2961 53.9114 39.718 54.1402L39.1543 54.3633C38.9778 54.4332 38.8381 54.5734 38.7685 54.7506L38.5462 55.3163C38.3182 55.8966 37.5 55.8966 37.272 55.3163L37.0497 54.7506C36.9801 54.5734 36.8404 54.4332 36.6639 54.3633L36.1002 54.1402C35.5221 53.9114 35.5221 53.0902 36.1002 52.8613L36.6639 52.6382C36.8404 52.5683 36.9801 52.4281 37.0497 52.251L37.272 51.6852Z" fill="#C2B4A3"/>
</svg>
