<svg width="164" height="182" viewBox="0 0 164 182" fill="none" xmlns="http://www.w3.org/2000/svg">
<path d="M9.6564 4.4064C-1.88547 15.9483 -1.88547 34.6613 9.6564 46.2032L25.9307 62.4775C26.0529 62.3362 26.1811 62.1983 26.3153 62.0641L67.3153 21.0641C67.4491 20.9303 67.5866 20.8025 67.7274 20.6806L51.4532 4.4064C39.9113 -7.13547 21.1983 -7.13547 9.6564 4.4064Z" stroke="#262626" stroke-width="2" stroke-dasharray="16 6"/>
<path d="M78.5705 31.5237C78.4487 31.6646 78.3208 31.8021 78.187 31.9359L37.187 72.9359C37.0529 73.0701 36.9149 73.1983 36.7736 73.3204L135.047 171.594C146.589 183.135 165.302 183.135 176.844 171.594C188.385 160.052 188.385 141.339 176.844 129.797L78.5705 31.5237Z" stroke="#262626" stroke-width="2" stroke-dasharray="16 6"/>
<path d="M135.275 -11.3513C136.925 -15.5496 142.845 -15.5496 144.494 -11.3513L148.906 -0.124639C149.409 1.15711 150.42 2.17171 151.697 2.67723L162.883 7.10496C167.065 8.76073 167.065 14.7023 162.883 16.3581L151.697 20.7858C150.42 21.2913 149.409 22.3059 148.906 23.5877L144.494 34.8143C142.845 39.0126 136.925 39.0126 135.275 34.8143L130.864 23.5877C130.36 22.3059 129.349 21.2913 128.072 20.7858L116.887 16.3581C112.704 14.7023 112.704 8.76073 116.887 7.10496L128.072 2.67723C129.349 2.17171 130.36 1.15711 130.864 -0.124639L135.275 -11.3513Z" stroke="#262626" stroke-width="2" stroke-dasharray="16 6"/>
<path d="M174.914 58.5769C176.563 54.3787 182.483 54.3787 184.133 58.5769L185.741 62.6702C186.245 63.952 187.256 64.9666 188.533 65.4721L192.611 67.0865C196.794 68.7422 196.794 74.6838 192.611 76.3395L188.533 77.9539C187.256 78.4594 186.245 79.474 185.741 80.7558L184.133 84.8491C182.483 89.0473 176.563 89.0473 174.914 84.8491L173.305 80.7558C172.802 79.474 171.791 78.4594 170.514 77.9539L166.435 76.3395C162.253 74.6838 162.253 68.7422 166.435 67.0865L170.514 65.4721C171.791 64.9666 172.802 63.952 173.305 62.6702L174.914 58.5769Z" stroke="#262626" stroke-width="2" stroke-dasharray="16 6"/>
<path d="M22.8653 121.899C24.5149 117.7 30.4346 117.7 32.0843 121.899L33.6927 125.992C34.1964 127.274 35.2072 128.288 36.4842 128.794L40.5625 130.408C44.7452 132.064 44.7452 138.006 40.5625 139.661L36.4842 141.276C35.2072 141.781 34.1964 142.796 33.6927 144.078L32.0843 148.171C30.4346 152.369 24.5149 152.369 22.8653 148.171L21.2568 144.078C20.7532 142.796 19.7423 141.781 18.4653 141.276L14.3871 139.661C10.2043 138.006 10.2043 132.064 14.3871 130.408L18.4653 128.794C19.7423 128.288 20.7532 127.274 21.2568 125.992L22.8653 121.899Z" stroke="#262626" stroke-width="2" stroke-dasharray="16 6"/>
</svg>
