<svg width="154" height="151" viewBox="0 0 154 151" fill="none" xmlns="http://www.w3.org/2000/svg">
<path fill-rule="evenodd" clip-rule="evenodd" d="M13.0086 -1.99138C1 10.0172 1 29.3448 1 68C1 106.655 1 125.983 13.0086 137.991C25.0172 150 44.3448 150 83 150H124C162.655 150 181.983 150 193.991 137.991C206 125.983 206 106.655 206 68C206 29.3448 206 10.0172 193.991 -1.99138C181.983 -14 162.655 -14 124 -14H83C44.3448 -14 25.0172 -14 13.0086 -1.99138ZM170.906 22.0786C173.624 25.3402 173.183 30.1877 169.921 32.9057L147.407 51.6673C138.322 59.2386 130.959 65.3752 124.459 69.5552C117.689 73.9094 111.096 76.66 103.5 76.66C95.904 76.66 89.3107 73.9094 82.5406 69.5552C76.0414 65.3752 68.6778 59.2386 59.5926 51.6674L37.0786 32.9057C33.817 30.1877 33.3763 25.3402 36.0943 22.0786C38.8123 18.817 43.6598 18.3763 46.9214 21.0943L69.0501 39.5349C78.6129 47.5039 85.2522 53.0188 90.8575 56.6238C96.2834 60.1135 99.963 61.285 103.5 61.285C107.037 61.285 110.717 60.1135 116.143 56.6238C121.748 53.0188 128.387 47.5039 137.95 39.5349L160.079 21.0943C163.34 18.3763 168.188 18.817 170.906 22.0786Z" stroke="#262626" stroke-width="2" stroke-linecap="round" stroke-dasharray="16 6"/>
</svg>
