<svg width="94" height="94" viewBox="0 0 94 94" fill="none" xmlns="http://www.w3.org/2000/svg">
<rect x="1" y="1" width="92" height="92" rx="46" stroke="#262626" stroke-width="2" stroke-dasharray="16 6"/>
<path d="M79 47L94 47" stroke="#262626" stroke-width="3"/>
<path d="M0 47L15 47" stroke="#262626" stroke-width="3"/>
<path d="M47 15V1.19209e-07" stroke="#262626" stroke-width="3"/>
<path d="M47 94V79" stroke="#262626" stroke-width="3"/>
<rect x="14" y="14" width="66" height="66" rx="33" fill="#1A1A1A"/>
<path fill-rule="evenodd" clip-rule="evenodd" d="M34.4937 37.3264C32.834 38.9861 32.834 41.6574 32.834 47C32.834 52.3426 32.834 55.0139 34.4937 56.6736C36.1534 58.3333 38.8247 58.3333 44.1673 58.3333H49.834C55.1766 58.3333 57.8479 58.3333 59.5076 56.6736C61.1673 55.0139 61.1673 52.3426 61.1673 47C61.1673 41.6574 61.1673 38.9861 59.5076 37.3264C57.8479 35.6667 55.1766 35.6667 49.834 35.6667H44.1673C38.8247 35.6667 36.1534 35.6667 34.4937 37.3264ZM56.3169 40.6531C56.6925 41.1039 56.6316 41.7739 56.1808 42.1496L53.0692 44.7426C51.8135 45.7891 50.7957 46.6372 49.8975 47.2149C48.9618 47.8167 48.0505 48.1969 47.0007 48.1969C45.9508 48.1969 45.0395 47.8167 44.1038 47.2149C43.2056 46.6372 42.1878 45.7891 40.9322 44.7426L37.8205 42.1496C37.3697 41.7739 37.3088 41.1039 37.6844 40.6531C38.0601 40.2023 38.7301 40.1414 39.1808 40.5171L42.2393 43.0658C43.561 44.1672 44.4786 44.9294 45.2533 45.4277C46.0032 45.91 46.5118 46.0719 47.0007 46.0719C47.4895 46.0719 47.9981 45.91 48.748 45.4277C49.5227 44.9294 50.4403 44.1672 51.762 43.0658L54.8205 40.5171C55.2712 40.1414 55.9412 40.2023 56.3169 40.6531Z" fill="#C2B4A3"/>
</svg>
