<svg width="154" height="172" viewBox="0 0 154 172" fill="none" xmlns="http://www.w3.org/2000/svg">
<path d="M32.0933 55.5305L33.0218 55.1592L32.5955 54.0933L31.5981 54.6617L32.0933 55.5305ZM123.516 101.243L124.508 101.119L124.364 99.9796L123.256 100.278L123.516 101.243ZM138.213 95.61L137.76 94.7181L137.1 95.0532L137.228 95.783L138.213 95.61ZM174.907 55.5306L175.402 54.6618L174.404 54.0934L173.978 55.1593L174.907 55.5306ZM116.463 163.752L115.761 163.04L114.776 164.01L116.006 164.642L116.463 163.752ZM103.5 87.5C100.575 87.5 97.6982 87.2924 94.8846 86.8914L94.6024 88.8714C97.5091 89.2857 100.48 89.5 103.5 89.5V87.5ZM88.5326 85.6346C82.8689 84.1932 77.524 81.9527 72.6251 79.0399L71.603 80.7589C76.664 83.7682 82.1867 86.0834 88.0393 87.5728L88.5326 85.6346ZM67.2429 75.4367C62.6279 71.9765 58.5235 67.8721 55.0633 63.2571L53.4631 64.4569C57.0371 69.2237 61.2763 73.4629 66.0431 77.0369L67.2429 75.4367ZM51.4601 57.8749C48.5473 52.976 46.3068 47.6311 44.8654 41.9674L42.9272 42.4607C44.4166 48.3133 46.7318 53.836 49.7411 58.897L51.4601 57.8749ZM43.6086 35.6154C43.2076 32.8018 43 29.9254 43 27H41C41 30.0202 41.2143 32.9909 41.6286 35.8976L43.6086 35.6154ZM43 27C43 24.0746 43.2076 21.1982 43.6086 18.3846L41.6286 18.1024C41.2143 21.0091 41 23.9798 41 27H43ZM44.8654 12.0326C46.3068 6.36886 48.5473 1.02404 51.4601 -3.87488L49.7411 -4.89703C46.7318 0.164028 44.4166 5.68665 42.9272 11.5393L44.8654 12.0326ZM55.0633 -9.25711C58.5235 -13.8721 62.6279 -17.9765 67.2429 -21.4367L66.0431 -23.0369C61.2763 -19.4629 57.0371 -15.2237 53.4631 -10.4569L55.0633 -9.25711ZM72.6251 -25.0399C77.524 -27.9527 82.8689 -30.1932 88.5326 -31.6346L88.0393 -33.5728C82.1866 -32.0834 76.664 -29.7682 71.603 -26.7589L72.6251 -25.0399ZM94.8846 -32.8914C97.6982 -33.2924 100.575 -33.5 103.5 -33.5V-35.5C100.48 -35.5 97.5091 -35.2857 94.6024 -34.8714L94.8846 -32.8914ZM103.5 -33.5C106.425 -33.5 109.302 -33.2924 112.115 -32.8914L112.398 -34.8714C109.491 -35.2857 106.52 -35.5 103.5 -35.5V-33.5ZM118.467 -31.6346C124.131 -30.1932 129.476 -27.9527 134.375 -25.0399L135.397 -26.7589C130.336 -29.7682 124.813 -32.0834 118.961 -33.5728L118.467 -31.6346ZM139.757 -21.4367C144.372 -17.9765 148.477 -13.8721 151.937 -9.25711L153.537 -10.4569C149.963 -15.2237 145.724 -19.4629 140.957 -23.0369L139.757 -21.4367ZM155.54 -3.87489C158.453 1.02404 160.693 6.36886 162.135 12.0326L164.073 11.5393C162.583 5.68665 160.268 0.164028 157.259 -4.89704L155.54 -3.87489ZM163.391 18.3846C163.792 21.1982 164 24.0746 164 27H166C166 23.9798 165.786 21.0091 165.371 18.1024L163.391 18.3846ZM164 27C164 29.9255 163.792 32.8018 163.391 35.6154L165.371 35.8976C165.786 32.9909 166 30.0202 166 27H164ZM162.135 41.9674C160.693 47.6311 158.453 52.976 155.54 57.8749L157.259 58.897C160.268 53.836 162.583 48.3133 164.073 42.4607L162.135 41.9674ZM151.937 63.2571C148.477 67.8721 144.372 71.9765 139.757 75.4367L140.957 77.0369C145.724 73.4629 149.963 69.2237 153.537 64.4569L151.937 63.2571ZM134.375 79.0399C129.476 81.9527 124.131 84.1932 118.467 85.6346L118.961 87.5728C124.813 86.0834 130.336 83.7682 135.397 80.7589L134.375 79.0399ZM112.115 86.8914C109.302 87.2924 106.425 87.5 103.5 87.5V89.5C106.52 89.5 109.491 89.2857 112.398 88.8714L112.115 86.8914ZM2 109C2 106.387 2.16554 103.814 2.48659 101.29L0.502568 101.037C0.1709 103.645 0 106.303 0 109H2ZM3.49248 95.5841C4.64648 90.4865 6.44418 85.6332 8.79579 81.1138L7.0216 80.1906C4.59193 84.86 2.73431 89.875 1.54184 95.1425L3.49248 95.5841ZM11.7135 76.1084C14.5269 71.7733 17.8805 67.8209 21.6789 64.3465L20.3291 62.8707C16.406 66.4591 12.9421 70.5415 10.0359 75.0196L11.7135 76.1084ZM26.1359 60.6437C28.1892 59.0972 30.3439 57.6785 32.5884 56.3993L31.5981 54.6617C29.2793 55.9832 27.0535 57.4487 24.9327 59.0462L26.1359 60.6437ZM31.1648 55.9018C32.2129 58.5228 33.3993 61.0734 34.715 63.5447L36.4804 62.6048C35.1986 60.1972 34.0428 57.7124 33.0218 55.1592L31.1648 55.9018ZM37.9099 68.9991C40.954 73.7434 44.4986 78.1355 48.4692 82.1011L49.8825 80.686C46.0132 76.8216 42.5592 72.5417 39.5932 67.9191L37.9099 68.9991ZM53.1179 86.3835C57.3878 90.0097 62.0541 93.1838 67.0429 95.8316L67.9805 94.065C63.1202 91.4854 58.5734 88.3927 54.4125 84.8591L53.1179 86.3835ZM72.7423 98.565C77.8471 100.762 83.2339 102.429 88.8332 103.496L89.2076 101.531C83.7531 100.492 78.5057 98.8679 73.5329 96.7278L72.7423 98.565ZM95.0847 104.426C97.8494 104.723 100.657 104.875 103.5 104.875V102.875C100.729 102.875 97.9922 102.726 95.2984 102.437L95.0847 104.426ZM103.5 104.875C106.011 104.875 108.495 104.756 110.946 104.524L110.757 102.533C108.369 102.759 105.948 102.875 103.5 102.875V104.875ZM116.491 103.796C118.96 103.381 121.39 102.851 123.775 102.209L123.256 100.278C120.933 100.903 118.565 101.42 116.159 101.824L116.491 103.796ZM122.523 101.368C122.639 102.284 122.733 103.207 122.807 104.136L124.801 103.977C124.725 103.018 124.627 102.065 124.508 101.119L122.523 101.368ZM122.937 106.218C122.979 107.14 123 108.068 123 109H125C125 108.037 124.978 107.08 124.935 106.128L122.937 106.218ZM123 109C123 111.925 122.792 114.802 122.391 117.615L124.371 117.898C124.786 114.991 125 112.02 125 109H123ZM121.135 123.967C119.693 129.631 117.453 134.976 114.54 139.875L116.259 140.897C119.268 135.836 121.583 130.313 123.073 124.461L121.135 123.967ZM110.937 145.257C107.477 149.872 103.372 153.977 98.7571 157.437L99.9569 159.037C104.724 155.463 108.963 151.224 112.537 146.457L110.937 145.257ZM93.3749 161.04C88.476 163.953 83.1311 166.193 77.4674 167.635L77.9607 169.573C83.8133 168.083 89.336 165.768 94.397 162.759L93.3749 161.04ZM71.1154 168.891C68.3018 169.292 65.4254 169.5 62.5 169.5V171.5C65.5202 171.5 68.4909 171.286 71.3976 170.871L71.1154 168.891ZM62.5 169.5C59.5746 169.5 56.6982 169.292 53.8846 168.891L53.6024 170.871C56.5091 171.286 59.4798 171.5 62.5 171.5V169.5ZM47.5326 167.635C41.8689 166.193 36.524 163.953 31.6251 161.04L30.603 162.759C35.664 165.768 41.1867 168.083 47.0393 169.573L47.5326 167.635ZM26.2429 157.437C21.6279 153.977 17.5235 149.872 14.0633 145.257L12.4631 146.457C16.0371 151.224 20.2763 155.463 25.0431 159.037L26.2429 157.437ZM10.4601 139.875C7.54727 134.976 5.30675 129.631 3.86544 123.967L1.92721 124.461C3.41662 130.313 5.73179 135.836 8.74106 140.897L10.4601 139.875ZM2.60863 117.615C2.20756 114.802 2 111.925 2 109H0C0 112.02 0.214293 114.991 0.628643 117.898L2.60863 117.615ZM137.228 95.783C137.505 97.3602 137.733 98.9542 137.911 100.563L139.899 100.344C139.716 98.692 139.482 97.0559 139.198 95.4371L137.228 95.783ZM138.224 104.172C138.324 105.768 138.375 107.378 138.375 109H140.375C140.375 107.336 140.323 105.685 140.22 104.047L138.224 104.172ZM138.375 109C138.375 111.457 138.258 113.886 138.03 116.282L140.021 116.472C140.255 114.013 140.375 111.52 140.375 109H138.375ZM137.316 121.703C136.498 126.56 135.217 131.26 133.522 135.757L135.394 136.462C137.134 131.846 138.448 127.021 139.288 122.035L137.316 121.703ZM131.41 140.799C129.359 145.236 126.892 149.442 124.059 153.366L125.68 154.537C128.588 150.509 131.12 146.193 133.226 141.638L131.41 140.799ZM120.702 157.681C119.14 159.546 117.491 161.334 115.761 163.04L117.165 164.464C118.941 162.714 120.633 160.878 122.235 158.965L120.702 157.681ZM116.006 164.642C119.175 166.267 122.501 167.631 125.955 168.702L126.547 166.792C123.205 165.755 119.986 164.436 116.919 162.862L116.006 164.642ZM133.795 170.587C137.274 171.187 140.851 171.5 144.5 171.5V169.5C140.965 169.5 137.502 169.197 134.135 168.616L133.795 170.587ZM144.5 171.5C147.52 171.5 150.491 171.286 153.397 170.871L153.115 168.891C150.302 169.292 147.425 169.5 144.5 169.5V171.5ZM159.96 169.573C165.813 168.083 171.336 165.768 176.397 162.759L175.375 161.04C170.476 163.953 165.131 166.193 159.467 167.635L159.96 169.573ZM181.957 159.037C186.723 155.463 190.963 151.224 194.537 146.457L192.936 145.257C189.476 149.872 185.372 153.976 180.757 157.437L181.957 159.037ZM198.259 140.897C201.268 135.836 203.583 130.313 205.073 124.461L203.134 123.967C201.693 129.631 199.452 134.976 196.54 139.875L198.259 140.897ZM206.371 117.898C206.785 114.991 207 112.02 207 109H205C205 111.925 204.792 114.802 204.391 117.615L206.371 117.898ZM207 109C207 106.303 206.829 103.645 206.497 101.037L204.513 101.29C204.834 103.814 205 106.387 205 109H207ZM205.458 95.1425C204.265 89.8751 202.408 84.8601 199.978 80.1907L198.204 81.1138C200.556 85.6332 202.353 90.4866 203.507 95.5841L205.458 95.1425ZM196.964 75.0197C194.058 70.5416 190.594 66.4593 186.671 62.8709L185.321 64.3466C189.119 67.821 192.473 71.7734 195.286 76.1084L196.964 75.0197ZM182.067 59.0463C179.946 57.4489 177.721 55.9833 175.402 54.6618L174.412 56.3995C176.656 57.6786 178.811 59.0973 180.864 60.6438L182.067 59.0463ZM173.978 55.1593C173.153 57.2228 172.24 59.2416 171.243 61.2111L173.028 62.1141C174.051 60.0925 174.988 58.0202 175.835 55.902L173.978 55.1593ZM168.849 65.5796C166.586 69.404 163.997 73.0127 161.12 76.3674L162.638 77.6694C165.591 74.2268 168.248 70.5232 170.57 66.598L168.849 65.5796ZM157.755 80.0414C154.661 83.2061 151.292 86.101 147.687 88.6878L148.853 90.3127C152.553 87.658 156.01 84.6871 159.185 81.4397L157.755 80.0414ZM143.547 91.4582C141.671 92.626 139.741 93.7142 137.76 94.7181L138.665 96.502C140.697 95.4716 142.679 94.3546 144.604 93.156L143.547 91.4582Z" fill="#262626"/>
</svg>
