<svg width="94" height="94" viewBox="0 0 94 94" fill="none" xmlns="http://www.w3.org/2000/svg">
<rect x="1" y="1" width="92" height="92" rx="46" stroke="#262626" stroke-width="2" stroke-dasharray="16 6"/>
<path d="M79 47L94 47" stroke="#262626" stroke-width="3"/>
<path d="M0 47L15 47" stroke="#262626" stroke-width="3"/>
<path d="M47 15V1.19209e-07" stroke="#262626" stroke-width="3"/>
<path d="M47 94V79" stroke="#262626" stroke-width="3"/>
<rect x="14" y="14" width="66" height="66" rx="33" fill="#1A1A1A"/>
<path fill-rule="evenodd" clip-rule="evenodd" d="M38.9722 32.8334H55.0278C55.4663 32.8334 55.6856 32.8334 55.8704 32.8503C57.9251 33.0389 59.5541 34.7481 59.7338 36.9038C59.75 37.0977 59.75 37.3277 59.75 37.7878V58.7014C59.75 59.9375 58.2502 60.462 57.5433 59.4731C57.0529 58.7871 56.0721 58.7871 55.5817 59.4731L54.9688 60.3306C54.1719 61.4454 52.5781 61.4454 51.7812 60.3306C50.9844 59.2159 49.3906 59.2159 48.5938 60.3306C47.7969 61.4454 46.2031 61.4454 45.4062 60.3306C44.6094 59.2159 43.0156 59.2159 42.2188 60.3306C41.4219 61.4454 39.8281 61.4454 39.0312 60.3306L38.4183 59.4731C37.9279 58.7871 36.9471 58.7871 36.4567 59.4731C35.7498 60.462 34.25 59.9375 34.25 58.7014V37.7878C34.25 37.3277 34.25 37.0977 34.2662 36.9038C34.4459 34.7481 36.0749 33.0389 38.1296 32.8503C38.3144 32.8334 38.5337 32.8334 38.9722 32.8334ZM44.918 40.5821C44.5031 40.1671 43.8303 40.1671 43.4154 40.5821C43.0005 40.997 43.0005 41.6697 43.4154 42.0847L45.4974 44.1667L43.4154 46.2487C43.0005 46.6637 43.0005 47.3364 43.4154 47.7513C43.8303 48.1663 44.5031 48.1663 44.918 47.7513L47 45.6693L49.082 47.7513C49.497 48.1663 50.1697 48.1663 50.5846 47.7513C50.9996 47.3364 50.9996 46.6637 50.5846 46.2487L48.5026 44.1667L50.5847 42.0847C50.9996 41.6698 50.9996 40.997 50.5847 40.5821C50.1697 40.1672 49.497 40.1672 49.0821 40.5821L47 42.6641L44.918 40.5821ZM40.625 50.8959C40.0382 50.8959 39.5625 51.3716 39.5625 51.9584C39.5625 52.5452 40.0382 53.0209 40.625 53.0209H53.375C53.9618 53.0209 54.4375 52.5452 54.4375 51.9584C54.4375 51.3716 53.9618 50.8959 53.375 50.8959H40.625Z" fill="#C2B4A3"/>
</svg>
