<svg width="94" height="94" viewBox="0 0 94 94" fill="none" xmlns="http://www.w3.org/2000/svg">
<rect x="1" y="1" width="92" height="92" rx="46" stroke="#262626" stroke-width="2" stroke-dasharray="16 6"/>
<path d="M79 47L94 47" stroke="#262626" stroke-width="3"/>
<path d="M0 47L15 47" stroke="#262626" stroke-width="3"/>
<path d="M47 15V1.19209e-07" stroke="#262626" stroke-width="3"/>
<path d="M47 94V79" stroke="#262626" stroke-width="3"/>
<rect x="14" y="14" width="66" height="66" rx="33" fill="#1A1A1A"/>
<path fill-rule="evenodd" clip-rule="evenodd" d="M37.3648 34.6739C38.218 32.8334 41.1455 32.8334 47.0007 32.8334C52.8558 32.8334 55.7833 32.8334 56.6365 34.6739C56.7098 34.8321 56.7717 34.9964 56.8215 35.1653C57.401 37.1305 55.3309 39.4083 51.1907 43.9638L48.4173 47L51.1907 50.0363C55.3309 54.5918 57.401 56.8695 56.8215 58.8347C56.7717 59.0037 56.7098 59.168 56.6365 59.3262C55.7833 61.1667 52.8558 61.1667 47.0007 61.1667C41.1455 61.1667 38.218 61.1667 37.3648 59.3262C37.2915 59.168 37.2296 59.0037 37.1798 58.8347C36.6003 56.8695 38.6704 54.5918 42.8106 50.0363L45.584 47L42.8106 43.9638C38.6704 39.4083 36.6003 37.1305 37.1798 35.1653C37.2296 34.9964 37.2915 34.8321 37.3648 34.6739ZM44.1673 55.1459C43.5805 55.1459 43.1048 55.6216 43.1048 56.2084C43.1048 56.7952 43.5805 57.2709 44.1673 57.2709H49.834C50.4208 57.2709 50.8965 56.7952 50.8965 56.2084C50.8965 55.6216 50.4208 55.1459 49.834 55.1459H44.1673ZM43.1048 37.7917C43.1048 37.2049 43.5805 36.7292 44.1673 36.7292H49.834C50.4208 36.7292 50.8965 37.2049 50.8965 37.7917C50.8965 38.3785 50.4208 38.8542 49.834 38.8542H44.1673C43.5805 38.8542 43.1048 38.3785 43.1048 37.7917Z" fill="#C2B4A3"/>
</svg>
