<svg width="94" height="94" viewBox="0 0 94 94" fill="none" xmlns="http://www.w3.org/2000/svg">
<rect x="1" y="1" width="92" height="92" rx="46" stroke="#262626" stroke-width="2" stroke-dasharray="16 6"/>
<path d="M79 47L94 47" stroke="#262626" stroke-width="3"/>
<path d="M0 47L15 47" stroke="#262626" stroke-width="3"/>
<path d="M47 15V1.19209e-07" stroke="#262626" stroke-width="3"/>
<path d="M47 94V79" stroke="#262626" stroke-width="3"/>
<rect x="14" y="14" width="66" height="66" rx="33" fill="#1A1A1A"/>
<path d="M59.6676 41.6008C60.4895 42.413 60.843 43.4355 61.0082 44.6499C61.1674 45.8197 61.1673 47.3069 61.1673 49.1521V49.3002C61.1673 51.1454 61.1674 52.6326 61.0082 53.8024C60.843 55.0168 60.4895 56.0393 59.6676 56.8515C58.8457 57.6636 57.8109 58.0129 56.5818 58.1762C55.398 58.3334 53.8929 58.3334 52.0255 58.3334H45.0485C43.1811 58.3334 41.676 58.3334 40.4922 58.1762C39.2632 58.0129 38.2283 57.6636 37.4064 56.8515C36.9078 56.3588 36.5816 55.7886 36.3652 55.1452C37.5997 55.298 39.1271 55.2979 40.8918 55.2978H47.9886C49.8043 55.2979 51.3687 55.298 52.6215 55.1316C53.9641 54.9532 55.251 54.551 56.2949 53.5195C57.3388 52.488 57.7458 51.2164 57.9263 49.8897C58.0948 48.6518 58.0947 47.106 58.0946 45.3119V45.0455C58.0947 43.3013 58.0948 41.7918 57.94 40.5717C58.5915 40.7855 59.1688 41.108 59.6676 41.6008Z" fill="#C2B4A3"/>
<path d="M44.4402 42.8175C43.1205 42.8175 42.0507 43.8747 42.0507 45.1787C42.0507 46.4827 43.1205 47.5398 44.4402 47.5398C45.7599 47.5398 46.8297 46.4827 46.8297 45.1787C46.8297 43.8747 45.7599 42.8175 44.4402 42.8175Z" fill="#C2B4A3"/>
<path fill-rule="evenodd" clip-rule="evenodd" d="M34.0338 38.2689C32.834 39.4544 32.834 41.3625 32.834 45.1787C32.834 48.9948 32.834 50.9029 34.0338 52.0885C35.2335 53.274 37.1646 53.274 41.0266 53.274H47.8538C51.7158 53.274 53.6469 53.274 54.8466 52.0885C56.0464 50.9029 56.0464 48.9948 56.0464 45.1787C56.0464 41.3625 56.0464 39.4544 54.8466 38.2689C53.6469 37.0834 51.7158 37.0834 47.8538 37.0834H41.0266C37.1646 37.0834 35.2335 37.0834 34.0338 38.2689ZM40.0025 45.1787C40.0025 42.7569 41.9893 40.7937 44.4402 40.7937C46.8911 40.7937 48.8779 42.7569 48.8779 45.1787C48.8779 47.6004 46.8911 49.5636 44.4402 49.5636C41.9893 49.5636 40.0025 47.6004 40.0025 45.1787ZM51.9501 48.889C51.3845 48.889 50.926 48.436 50.926 47.8771V42.4802C50.926 41.9214 51.3845 41.4683 51.9501 41.4683C52.5157 41.4683 52.9742 41.9214 52.9742 42.4802V47.8771C52.9742 48.436 52.5157 48.889 51.9501 48.889ZM35.9062 47.8771C35.9062 48.436 36.3647 48.889 36.9303 48.889C37.4959 48.889 37.9544 48.436 37.9544 47.8771L37.9544 42.4802C37.9544 41.9214 37.4959 41.4683 36.9303 41.4683C36.3647 41.4683 35.9062 41.9214 35.9062 42.4802L35.9062 47.8771Z" fill="#C2B4A3"/>
</svg>
