<svg width="60" height="60" viewBox="0 0 60 60" fill="none" xmlns="http://www.w3.org/2000/svg">
<path d="M29.8357 0L30.6352 22.3919L36.073 0.655572L32.1997 22.7244L42.0379 2.59364L33.6607 23.3749L47.4694 5.72949L34.9546 24.3149L52.1299 9.92607L36.0247 25.5035L55.8166 15L36.8242 26.8885L58.3675 20.7295L37.3186 28.4095L59.6713 26.8641L37.4857 30L59.6713 33.1359L37.3186 31.5906L58.3675 39.2706L36.8242 33.1116L55.8166 45L36.0247 34.4967L52.1299 50.0739L34.9546 35.685L47.4694 54.2706L33.6607 36.6252L42.0379 57.4065L32.1997 37.2756L36.073 59.3445L30.6352 37.608L29.8357 60L29.036 37.608L23.5983 59.3445L27.4717 37.2756L17.6335 57.4065L26.0107 36.6252L12.2021 54.2706L24.7168 35.685L7.54131 50.0739L23.6467 34.4967L3.85491 45L22.847 33.1116L1.30396 39.2706L22.3528 31.5906L0 33.1359L22.1857 30L0 26.8641L22.3528 28.4095L1.30396 20.7295L22.847 26.8885L3.85491 15L23.6467 25.5035L7.54131 9.92607L24.7168 24.3149L12.2021 5.72949L26.0107 23.3749L17.6335 2.59364L27.4717 22.7244L23.5983 0.655572L29.036 22.3919L29.8357 0Z" fill="#AE9B84"/>
</svg>
