<?xml version="1.0" encoding="UTF-8"?>
<svg id="Layer_1" xmlns="http://www.w3.org/2000/svg" version="1.1" viewBox="0 0 152 29">
  <!-- Generator: Adobe Illustrator 29.7.1, SVG Export Plug-In . SVG Version: 2.1.1 Build 8)  -->
  <defs>
    <style>
      .st0 {
        fill: #ae9b84;
      }

      .st1 {
        fill: #5a5450;
      }
    </style>
  </defs>
  <path class="st0" d="M128.2,22V7.5h3.9v14.5h-3.9ZM137.7,22v-8.6c0-.8-.3-1.5-.8-1.9-.5-.5-1.2-.7-1.9-.7s-1,.1-1.4.3c-.4.2-.8.5-1,.9-.2.4-.4.9-.4,1.4l-1.5-.8c0-1.1.2-2.1.7-2.9.5-.8,1.2-1.4,2-1.9.8-.5,1.8-.7,2.9-.7s1.9.2,2.7.7c.8.4,1.5,1.1,2,1.9.5.8.7,1.8.7,2.9v9.3h-3.9ZM147.1,22v-8.6c0-.8-.3-1.5-.8-1.9-.5-.5-1.2-.7-1.9-.7s-1,.1-1.4.3c-.4.2-.8.5-1,.9-.2.4-.4.9-.4,1.4l-2.3-.5c0-1.2.4-2.2.9-3,.5-.9,1.3-1.5,2.1-2,.9-.5,1.9-.7,2.9-.7s2.1.2,2.9.7c.9.4,1.5,1.1,2,1.9.5.8.8,1.8.8,3v9.2h-3.9Z"/>
  <path class="st0" d="M118,22.3c-1.5,0-2.8-.3-4-1-1.2-.7-2.1-1.6-2.8-2.7-.7-1.2-1-2.4-1-3.9s.3-2.7,1-3.8c.7-1.1,1.6-2,2.8-2.7,1.2-.7,2.5-1,3.9-1s2.8.3,4,1c1.2.7,2.1,1.6,2.8,2.7.7,1.1,1,2.4,1,3.8s-.3,2.7-1,3.9c-.7,1.1-1.6,2.1-2.8,2.7-1.2.7-2.5,1-3.9,1ZM117.9,18.6c.7,0,1.4-.2,1.9-.5.6-.3,1-.8,1.3-1.4.3-.6.5-1.3.5-2s-.2-1.4-.5-2-.8-1-1.3-1.3c-.6-.3-1.2-.5-1.9-.5s-1.4.2-1.9.5c-.6.3-1,.8-1.3,1.3s-.5,1.3-.5,2,.2,1.4.5,2c.3.6.8,1,1.3,1.4.6.3,1.2.5,1.9.5Z"/>
  <path class="st0" d="M100.9,22.3c-1.5,0-2.8-.3-4-1-1.2-.7-2.1-1.6-2.8-2.7-.7-1.2-1-2.4-1-3.9s.3-2.7,1-3.8c.7-1.1,1.6-2,2.8-2.7,1.2-.7,2.5-1,3.9-1s2.8.3,4,1c1.2.7,2.1,1.6,2.8,2.7.7,1.1,1,2.4,1,3.8s-.3,2.7-1,3.9c-.7,1.1-1.6,2.1-2.8,2.7-1.2.7-2.5,1-3.9,1ZM100.8,18.6c.7,0,1.4-.2,2-.5.6-.3,1-.8,1.3-1.4.3-.6.5-1.3.5-2s-.2-1.4-.5-2-.8-1-1.3-1.3c-.6-.3-1.2-.5-2-.5s-1.4.2-1.9.5c-.6.3-1,.8-1.3,1.3s-.5,1.3-.5,2,.2,1.4.5,2c.3.6.8,1,1.3,1.4.6.3,1.2.5,1.9.5Z"/>
  <path class="st0" d="M78.2,22V.9h4.1v21.1h-4.1ZM81.2,22v-3.6h10.7v3.6h-10.7Z"/>
  <path class="st1" d="M71.6,22.3c-.7,0-1.3-.2-1.8-.7-.5-.5-.7-1.1-.7-1.8s.2-1.3.7-1.8,1.1-.7,1.8-.7,1.3.2,1.7.7.7,1.1.7,1.8-.2,1.3-.7,1.8c-.5.5-1,.7-1.7.7Z"/>
  <path class="st0" d="M59.6,22.3c-1.5,0-2.9-.3-4-1-1.2-.7-2.1-1.6-2.8-2.7-.7-1.1-1-2.4-1-3.9s.3-2.7,1-3.8c.7-1.1,1.6-2,2.8-2.7,1.2-.7,2.5-1,3.9-1s2.6.3,3.7,1c1.1.6,1.9,1.5,2.5,2.6.6,1.1.9,2.3.9,3.7s0,.5,0,.8c0,.3,0,.6-.2.9h-12.2s0-2.9,0-2.9h10.3s-1.6,1.2-1.6,1.2c0-.9-.2-1.6-.5-2.2-.3-.6-.7-1-1.2-1.3-.5-.3-1.1-.5-1.9-.5s-1.5.2-2,.5c-.6.3-1,.8-1.4,1.5-.3.6-.4,1.4-.4,2.2s.2,1.6.5,2.3c.3.6.8,1.1,1.4,1.5.6.3,1.3.5,2.2.5s1.4-.1,2-.4c.6-.3,1.1-.6,1.6-1.1l2.3,2.3c-.7.8-1.6,1.4-2.6,1.9-1,.4-2.1.6-3.3.6Z"/>
  <path class="st0" d="M45.3,22V.3h3.9v21.7h-3.9Z"/>
  <path class="st0" d="M34.4,22.1l-6.1-14.6h4.3l4,11.2h-1.4l4.2-11.2h4.3l-6.5,14.6h-2.8ZM30.4,28.1l4.4-9.3,2.4,3.4-2.6,6h-4.2Z"/>
  <path class="st0" d="M20.3,22V1.5h3.9v20.5h-3.9ZM16.9,11v-3.5h10.7v3.5h-10.7Z"/>
  <path class="st0" d="M7.7,22.3c-1.7,0-3.2-.3-4.4-.9-1.2-.6-2.3-1.5-3.3-2.6l2.7-2.7c.6.8,1.3,1.5,2.2,1.9.8.4,1.8.7,3,.7s1.9-.2,2.5-.6c.6-.4,1-1,1-1.7s-.2-1.2-.5-1.6c-.4-.4-.8-.7-1.4-1-.6-.3-1.2-.5-1.9-.8-.7-.2-1.4-.5-2.1-.8-.7-.3-1.4-.7-2-1.1-.6-.5-1-1-1.4-1.7-.4-.7-.5-1.6-.5-2.7s.3-2.4.9-3.3c.6-.9,1.5-1.6,2.6-2.1,1.1-.5,2.3-.7,3.7-.7s2.7.3,3.9.8c1.2.5,2.1,1.2,2.9,2.1l-2.7,2.7c-.6-.7-1.3-1.2-1.9-1.5-.6-.3-1.4-.5-2.2-.5s-1.7.2-2.2.5c-.5.4-.8.9-.8,1.6s.2,1.1.5,1.4c.4.4.8.7,1.4.9.6.3,1.3.5,1.9.8.7.2,1.4.5,2.1.8.7.3,1.4.7,1.9,1.2.6.5,1.1,1.1,1.4,1.9.4.7.5,1.7.5,2.8,0,2-.7,3.5-2.1,4.6-1.4,1.1-3.3,1.7-5.7,1.7Z"/>
</svg>