<svg width="22" height="22" viewBox="0 0 22 22" fill="none" xmlns="http://www.w3.org/2000/svg">
<path d="M19.8172 10.6068L19.1753 10.219V10.219L19.8172 10.6068ZM10.8932 1.68276L10.5053 1.04085V1.04085L10.8932 1.68276ZM20 10.75C20 15.8586 15.8586 20 10.75 20V21.5C16.6871 21.5 21.5 16.6871 21.5 10.75H20ZM10.75 20C5.64137 20 1.5 15.8586 1.5 10.75H0C0 16.6871 4.81294 21.5 10.75 21.5V20ZM1.5 10.75C1.5 5.64137 5.64137 1.5 10.75 1.5V0C4.81294 0 0 4.81294 0 10.75H1.5ZM14.25 13C11.0744 13 8.5 10.4256 8.5 7.25H7C7 11.2541 10.2459 14.5 14.25 14.5V13ZM19.1753 10.219C18.1672 11.8873 16.3382 13 14.25 13V14.5C16.8849 14.5 19.1907 13.0939 20.4592 10.9947L19.1753 10.219ZM8.5 7.25C8.5 5.16182 9.61266 3.3328 11.281 2.32467L10.5053 1.04085C8.40609 2.3093 7 4.61509 7 7.25H8.5ZM10.75 1.5C10.6615 1.5 10.5577 1.46008 10.4824 1.38168C10.4186 1.31527 10.4038 1.25244 10.4003 1.22703C10.3961 1.19587 10.3982 1.10557 10.5053 1.04085L11.281 2.32467C11.7842 2.02065 11.946 1.46398 11.8868 1.02627C11.8254 0.571258 11.4666 0 10.75 0V1.5ZM20.4592 10.9947C20.3944 11.1018 20.3041 11.1039 20.273 11.0997C20.2476 11.0962 20.1847 11.0814 20.1183 11.0176C20.0399 10.9423 20 10.8385 20 10.75H21.5C21.5 10.0334 20.9287 9.67461 20.4737 9.61316C20.036 9.55404 19.4793 9.71584 19.1753 10.219L20.4592 10.9947Z" fill="white"/>
</svg>
