<svg width="20" height="19" viewBox="0 0 20 19" fill="none" xmlns="http://www.w3.org/2000/svg">
<path d="M7.92895 0.988428C8.70164 -0.329538 10.607 -0.329536 11.3796 0.98843L13.1055 3.93217C13.3875 4.41314 13.8574 4.75458 14.402 4.87413L17.735 5.60583C19.2272 5.93343 19.816 7.74549 18.8013 8.88763L16.5349 11.4387C16.1646 11.8555 15.9851 12.4079 16.0397 12.9628L16.3738 16.3588C16.5233 17.8792 14.9819 18.9991 13.5821 18.387L10.4556 17.0199C9.94474 16.7965 9.36386 16.7965 8.85302 17.0199L5.7265 18.387C4.3267 18.9991 2.78527 17.8792 2.93483 16.3587L3.26889 12.9628C3.32347 12.4079 3.14396 11.8555 2.77367 11.4387L0.507318 8.88763C-0.507367 7.74549 0.0814083 5.93343 1.57364 5.60583L4.90662 4.87413C5.45119 4.75458 5.92113 4.41314 6.20311 3.93217L7.92895 0.988428Z" fill="#FFCE22"/>
</svg>
