<svg width="31" height="26" viewBox="0 0 31 26" fill="none" xmlns="http://www.w3.org/2000/svg">
<path d="M30.7964 3.06323C29.7958 3.49387 28.7438 3.79374 27.6665 3.95544C28.1702 3.86909 28.9113 2.96249 29.2063 2.59554C29.6545 2.04202 29.996 1.41013 30.2136 0.731972C30.2136 0.681606 30.264 0.609653 30.2136 0.573677C30.1882 0.559822 30.1598 0.552562 30.1309 0.552562C30.102 0.552562 30.0735 0.559822 30.0481 0.573677C28.8783 1.20716 27.6333 1.69065 26.3426 2.01272C26.2976 2.02647 26.2497 2.0277 26.2041 2.01629C26.1584 2.00488 26.1168 1.98126 26.0836 1.94797C25.9831 1.82833 25.8749 1.71537 25.7598 1.60979C25.2333 1.13811 24.636 0.752053 23.9897 0.465749C23.1173 0.107841 22.175 -0.0471603 21.234 0.0124492C20.3208 0.0701174 19.4293 0.315036 18.6149 0.731972C17.8129 1.17155 17.108 1.76872 16.5427 2.48761C15.948 3.22753 15.5186 4.08623 15.2835 5.00594C15.0896 5.88077 15.0676 6.78495 15.2188 7.66818C15.2188 7.81927 15.2188 7.84086 15.0892 7.81927C9.95904 7.06378 5.74983 5.24338 2.31051 1.33637C2.15941 1.16369 2.08027 1.16369 1.95795 1.33637C0.46134 3.61006 1.18806 7.20768 3.05882 8.9849C3.31065 9.22235 3.56968 9.45259 3.8431 9.66845C2.98537 9.60756 2.14858 9.37512 1.38233 8.9849C1.23842 8.89136 1.15928 8.94173 1.15208 9.11442C1.13168 9.35382 1.13168 9.59453 1.15208 9.83394C1.30221 10.9813 1.75438 12.0682 2.46233 12.9835C3.17029 13.8987 4.10863 14.6096 5.18141 15.0433C5.44293 15.1553 5.71543 15.2397 5.99447 15.2951C5.20042 15.4514 4.38603 15.4758 3.58407 15.3671C3.41138 15.3311 3.34663 15.4246 3.41138 15.5901C4.46908 18.4682 6.76436 19.346 8.44805 19.8353C8.67829 19.8713 8.90854 19.8713 9.16757 19.9289C9.16757 19.9289 9.16757 19.9288 9.1244 19.972C8.62793 20.8786 6.62046 21.4902 5.69947 21.8068C4.01842 22.4106 2.22612 22.6414 0.446949 22.4832C0.166335 22.44 0.101578 22.4472 0.0296256 22.4832C-0.0423267 22.5191 0.0296256 22.5983 0.108773 22.6702C0.468535 22.9077 0.828296 23.1163 1.20245 23.3178C2.3163 23.9253 3.49387 24.4079 4.71372 24.7569C11.0311 26.4981 18.14 25.2173 22.8817 20.5045C26.6088 16.8061 27.9183 11.7047 27.9183 6.59609C27.9183 6.40181 28.1558 6.28669 28.2925 6.18596C29.2354 5.45125 30.0668 4.58357 30.7605 3.61006C30.8806 3.46495 30.9422 3.28018 30.9331 3.09201C30.9331 2.98408 30.9331 3.00567 30.7964 3.06323Z" fill="#C2B4A3"/>
</svg>
