<svg width="27" height="29" viewBox="0 0 27 29" fill="none" xmlns="http://www.w3.org/2000/svg">
<g filter="url(#filter0_d_301_15406)">
<path d="M4.84453 3.84453C3.71849 4.97056 3.71849 6.79623 4.84453 7.92226L6.43227 9.51C6.44419 9.49622 6.45669 9.48276 6.46978 9.46967L10.4698 5.46967C10.4828 5.45662 10.4962 5.44415 10.51 5.43226L8.92226 3.84453C7.79623 2.71849 5.97056 2.71849 4.84453 3.84453Z" fill="white"/>
<path d="M11.5679 6.49012C11.556 6.50386 11.5435 6.51728 11.5304 6.53033L7.53044 10.5303C7.51735 10.5434 7.5039 10.5559 7.49011 10.5678L17.0777 20.1555C18.2038 21.2815 20.0294 21.2815 21.1555 20.1555C22.2815 19.0294 22.2815 17.2038 21.1555 16.0777L11.5679 6.49012Z" fill="white"/>
<path d="M17.1 2.30719C17.261 1.8976 17.8385 1.8976 17.9994 2.30719L18.4298 3.40247C18.479 3.52752 18.5776 3.62651 18.7022 3.67583L19.7934 4.1078C20.2015 4.26934 20.2015 4.849 19.7934 5.01054L18.7022 5.44252C18.5776 5.49184 18.479 5.59082 18.4298 5.71587L17.9995 6.81115C17.8385 7.22074 17.261 7.22074 17.1 6.81116L16.6697 5.71587C16.6205 5.59082 16.5219 5.49184 16.3973 5.44252L15.3061 5.01054C14.898 4.849 14.898 4.26934 15.3061 4.1078L16.3973 3.67583C16.5219 3.62651 16.6205 3.52752 16.6697 3.40247L17.1 2.30719Z" fill="white"/>
<path d="M20.9672 9.12945C21.1281 8.71987 21.7057 8.71987 21.8666 9.12945L22.0235 9.5288C22.0727 9.65385 22.1713 9.75284 22.2959 9.80215L22.6937 9.95965C23.1018 10.1212 23.1018 10.7009 22.6937 10.8624L22.2959 11.0199C22.1713 11.0692 22.0727 11.1682 22.0235 11.2932L21.8666 11.6926C21.7057 12.1022 21.1281 12.1022 20.9672 11.6926L20.8103 11.2932C20.7611 11.1682 20.6625 11.0692 20.5379 11.0199L20.14 10.8624C19.732 10.7009 19.732 10.1212 20.14 9.95965L20.5379 9.80215C20.6625 9.75284 20.7611 9.65385 20.8103 9.5288L20.9672 9.12945Z" fill="white"/>
<path d="M6.1332 15.3072C6.29414 14.8976 6.87167 14.8976 7.03261 15.3072L7.18953 15.7065C7.23867 15.8316 7.33729 15.9306 7.46188 15.9799L7.85975 16.1374C8.26783 16.2989 8.26783 16.8786 7.85975 17.0401L7.46188 17.1976C7.33729 17.2469 7.23867 17.3459 7.18953 17.471L7.03261 17.8703C6.87167 18.2799 6.29414 18.2799 6.1332 17.8703L5.97628 17.471C5.92714 17.3459 5.82852 17.2469 5.70393 17.1976L5.30606 17.0401C4.89798 16.8786 4.89798 16.2989 5.30606 16.1374L5.70393 15.9799C5.82852 15.9306 5.92714 15.8316 5.97628 15.7065L6.1332 15.3072Z" fill="white"/>
</g>
<defs>
<filter id="filter0_d_301_15406" x="-3" y="0" width="32" height="32" filterUnits="userSpaceOnUse" color-interpolation-filters="sRGB">
<feFlood flood-opacity="0" result="BackgroundImageFix"/>
<feColorMatrix in="SourceAlpha" type="matrix" values="0 0 0 0 0 0 0 0 0 0 0 0 0 0 0 0 0 0 127 0" result="hardAlpha"/>
<feOffset dy="4"/>
<feGaussianBlur stdDeviation="2"/>
<feComposite in2="hardAlpha" operator="out"/>
<feColorMatrix type="matrix" values="0 0 0 0 0 0 0 0 0 0 0 0 0 0 0 0 0 0 0.25 0"/>
<feBlend mode="normal" in2="BackgroundImageFix" result="effect1_dropShadow_301_15406"/>
<feBlend mode="normal" in="SourceGraphic" in2="effect1_dropShadow_301_15406" result="shape"/>
</filter>
</defs>
</svg>
