<svg width="94" height="94" viewBox="0 0 94 94" fill="none" xmlns="http://www.w3.org/2000/svg">
<rect x="1" y="1" width="92" height="92" rx="46" stroke="#262626" stroke-width="2" stroke-dasharray="16 6"/>
<path d="M79 47L94 47" stroke="#262626" stroke-width="3"/>
<path d="M0 47L15 47" stroke="#262626" stroke-width="3"/>
<path d="M47 15V1.19209e-07" stroke="#262626" stroke-width="3"/>
<path d="M47 94V79" stroke="#262626" stroke-width="3"/>
<rect x="14" y="14" width="66" height="66" rx="33" fill="#1A1A1A"/>
<path fill-rule="evenodd" clip-rule="evenodd" d="M46.9993 32.8333C40.7401 32.8333 35.666 38.5037 35.666 44.875C35.666 51.1964 39.2832 58.0676 44.9269 60.7055C46.2425 61.3204 47.7562 61.3204 49.0718 60.7055C54.7155 58.0676 58.3327 51.1964 58.3327 44.875C58.3327 38.5037 53.2586 32.8333 46.9993 32.8333ZM46.9993 47C48.5642 47 49.8327 45.7315 49.8327 44.1667C49.8327 42.6019 48.5642 41.3333 46.9993 41.3333C45.4345 41.3333 44.166 42.6019 44.166 44.1667C44.166 45.7315 45.4345 47 46.9993 47Z" fill="#C2B4A3"/>
</svg>
