<svg width="133" height="172" viewBox="0 0 133 172" fill="none" xmlns="http://www.w3.org/2000/svg">
<path fill-rule="evenodd" clip-rule="evenodd" d="M83 -34.5C37.7127 -34.5 1 6.52648 1 52.625C1 98.3623 27.1716 148.077 68.0049 167.163C77.5239 171.612 88.4761 171.612 97.9951 167.163C138.828 148.077 165 98.3623 165 52.625C165 6.52648 128.287 -34.5 83 -34.5ZM83 68C94.3218 68 103.5 58.8218 103.5 47.5C103.5 36.1782 94.3218 27 83 27C71.6782 27 62.5 36.1782 62.5 47.5C62.5 58.8218 71.6782 68 83 68Z" stroke="#262626" stroke-width="2" stroke-dasharray="16 6"/>
</svg>
