<svg width="94" height="94" viewBox="0 0 94 94" fill="none" xmlns="http://www.w3.org/2000/svg">
<rect x="1" y="1" width="92" height="92" rx="46" stroke="#262626" stroke-width="2" stroke-dasharray="16 6"/>
<path d="M79 47L94 47" stroke="#262626" stroke-width="3"/>
<path d="M0 47L15 47" stroke="#262626" stroke-width="3"/>
<path d="M47 15V1.19209e-07" stroke="#262626" stroke-width="3"/>
<path d="M47 94V79" stroke="#262626" stroke-width="3"/>
<rect x="14" y="14" width="66" height="66" rx="33" fill="#1A1A1A"/>
<path d="M44.2193 37.5312L45.1387 39.1787C45.9684 40.6655 45.6354 42.6159 44.3285 43.9227C44.3285 43.9227 44.3285 43.9227 44.3285 43.9227C44.3284 43.9228 42.7435 45.508 45.6174 48.3819C48.4907 51.2552 50.0758 49.6716 50.0766 49.6708C50.0767 49.6708 50.0766 49.6708 50.0767 49.6708C51.3835 48.364 53.3339 48.0309 54.8206 48.8606L56.4681 49.7801C58.7131 51.033 58.9783 54.1814 57.0049 56.1548C55.8192 57.3405 54.3666 58.2632 52.7608 58.324C50.0576 58.4265 45.4669 57.7424 40.8619 53.1374C36.2569 48.5324 35.5728 43.9417 35.6753 41.2385C35.7362 39.6328 36.6588 38.1802 37.8446 36.9944C39.8179 35.0211 42.9663 35.2862 44.2193 37.5312Z" fill="#C2B4A3"/>
</svg>
