<svg width="133" height="151" viewBox="0 0 133 151" fill="none" xmlns="http://www.w3.org/2000/svg">
<path d="M62.8853 -0.509244L69.5377 11.4108C75.5411 22.168 73.1311 36.2796 63.6757 45.735C63.6757 45.735 52.2067 57.2041 73.0013 77.9987C93.7955 98.793 105.265 87.3243 105.265 87.3243C114.72 77.8689 128.832 75.4589 139.589 81.4623L151.509 88.1147C167.753 97.18 169.671 119.96 155.393 134.237C146.814 142.817 136.304 149.492 124.686 149.933C105.127 150.674 71.9123 145.724 38.594 112.406C5.27556 79.0876 0.3257 45.8725 1.06715 26.3141C1.5076 14.6959 8.18323 4.18591 16.7625 -4.39338C31.0402 -18.6711 53.82 -16.7528 62.8853 -0.509244Z" stroke="#262626" stroke-width="2" stroke-linecap="round" stroke-dasharray="16 6"/>
</svg>
