<svg width="94" height="94" viewBox="0 0 94 94" fill="none" xmlns="http://www.w3.org/2000/svg">
<rect x="1" y="1" width="92" height="92" rx="46" stroke="#262626" stroke-width="2" stroke-dasharray="16 6"/>
<path d="M79 47L94 47" stroke="#262626" stroke-width="3"/>
<path d="M0 47L15 47" stroke="#262626" stroke-width="3"/>
<path d="M47 15V1.19209e-07" stroke="#262626" stroke-width="3"/>
<path d="M47 94V79" stroke="#262626" stroke-width="3"/>
<rect x="14" y="14" width="66" height="66" rx="33" fill="#1A1A1A"/>
<path fill-rule="evenodd" clip-rule="evenodd" d="M59.75 46.86V39.1079C59.75 35.8933 59.75 34.286 58.7481 33.4066C57.7461 32.5271 56.2147 32.7916 53.1517 33.3205L51.658 33.5785C49.3343 33.9798 48.1725 34.1804 47 34.1804C45.8275 34.1804 44.6657 33.9798 42.342 33.5785L40.8483 33.3205C37.7853 32.7916 36.2539 32.5271 35.2519 33.4066C34.25 34.286 34.25 35.8933 34.25 39.1079V46.86C34.25 54.9192 40.2552 58.8302 44.023 60.4909C45.045 60.9414 45.556 61.1666 47 61.1666C48.444 61.1666 48.955 60.9414 49.977 60.4909C53.7448 58.8302 59.75 54.9192 59.75 46.86ZM40.1588 42.9484C40.3337 42.5857 40.9888 42.0893 42.0417 42.0893C43.0946 42.0893 43.7496 42.5857 43.9246 42.9484C44.1869 43.4923 44.825 43.7129 45.3499 43.4411C45.8749 43.1693 46.0877 42.5081 45.8254 41.9642C45.1755 40.6165 43.6049 39.8875 42.0417 39.8875C40.4784 39.8875 38.9078 40.6165 38.2579 41.9642C37.9956 42.5081 38.2085 43.1693 38.7334 43.4411C39.2583 43.7129 39.8965 43.4923 40.1588 42.9484ZM51.9583 42.0893C50.9054 42.0893 50.2504 42.5857 50.0754 42.9484C49.8131 43.4923 49.175 43.7129 48.6501 43.4411C48.1251 43.1693 47.9123 42.5081 48.1746 41.9642C48.8245 40.6165 50.3951 39.8875 51.9583 39.8875C53.5216 39.8875 55.0922 40.6165 55.7421 41.9642C56.0044 42.5081 55.7915 43.1693 55.2666 43.4411C54.7417 43.7129 54.1035 43.4923 53.8412 42.9484C53.6663 42.5857 53.0112 42.0893 51.9583 42.0893ZM41.3171 50.601C40.8922 50.1817 40.8676 49.4768 41.2723 49.0365C41.6736 48.5999 42.3588 48.5973 42.7843 49.006C42.8117 49.0281 42.8785 49.0812 42.9292 49.1172C43.0719 49.2186 43.3085 49.3678 43.6468 49.5219C44.3198 49.8284 45.4139 50.1628 47 50.1628C48.5861 50.1628 49.6802 49.8284 50.3532 49.5219C50.6915 49.3678 50.9281 49.2186 51.0708 49.1172C51.1422 49.0665 51.1902 49.0276 51.2157 49.006C51.2266 48.9968 51.2334 48.9908 51.2362 48.9883L51.2372 48.9873C51.6627 48.5796 52.3267 48.6002 52.7277 49.0365C53.1324 49.4768 53.116 50.1737 52.6911 50.593L52.6893 50.5948L52.6873 50.5967L52.6829 50.601L52.6724 50.6111L52.6443 50.6373C52.6225 50.6573 52.5942 50.6824 52.5595 50.7117C52.4901 50.7704 52.3948 50.8462 52.2726 50.9331C52.0279 51.107 51.6757 51.3247 51.2083 51.5376C50.2698 51.965 48.8848 52.3646 47 52.3646C45.1152 52.3646 43.7302 51.965 42.7917 51.5376C42.3243 51.3247 41.9721 51.107 41.7274 50.9331C41.6052 50.8462 41.5099 50.7704 41.4405 50.7117C41.4077 50.684 41.336 50.6187 41.3194 50.6032L41.3171 50.601Z" fill="#C2B4A3"/>
</svg>
