<svg width="144" height="172" viewBox="0 0 144 172" fill="none" xmlns="http://www.w3.org/2000/svg">
<path d="M62.7479 82.5143C62.9463 82.6743 63.43 83.0582 63.7965 83.3186C64.8289 84.0521 66.5411 85.1319 68.9888 86.2467C73.8578 88.4644 81.7744 90.8837 93.25 90.8837C104.726 90.8837 112.642 88.4644 117.511 86.2467C119.959 85.1319 121.671 84.0522 122.703 83.3186C123.22 82.9515 123.568 82.6705 123.752 82.5143C123.831 82.4478 123.88 82.4039 123.9 82.3859L123.908 82.3788C126.986 79.429 131.79 79.5783 134.692 82.7351C137.62 85.9207 137.501 90.9627 134.427 93.9967L134.414 94.0096L134.399 94.0236L134.368 94.0544L134.292 94.1274L134.088 94.3168C133.93 94.4617 133.726 94.6431 133.475 94.8554C132.973 95.2801 132.283 95.8288 131.398 96.4574C129.628 97.7152 127.08 99.2906 123.698 100.831C116.908 103.924 106.887 106.815 93.25 106.815C79.6131 106.815 69.5922 103.924 62.8019 100.831C59.4199 99.2906 56.8719 97.7152 55.1015 96.4574C54.2168 95.8288 53.5272 95.2801 53.0251 94.8554C52.7878 94.6547 52.2692 94.1827 52.1491 94.0702L52.1324 94.0544C49.0579 91.0205 48.8801 85.9207 51.8082 82.7351C54.7121 79.5758 59.6697 79.5572 62.7479 82.5143ZM62.7479 82.5143C62.6672 82.4493 62.8012 82.5595 62.7479 82.5143ZM62.7479 82.5143C62.6692 82.4478 62.7678 82.5324 62.7479 82.5143ZM185.5 66.9872V10.8984C185.5 -12.3599 185.5 -23.9891 178.251 -30.3523C171.001 -36.7154 159.921 -34.8019 137.76 -30.9748L126.952 -29.1083C110.139 -26.2049 101.733 -24.7532 93.25 -24.7532C84.7668 -24.7532 76.3606 -26.2049 59.5482 -29.1083L48.7404 -30.9748C26.5792 -34.8019 15.4986 -36.7154 8.24931 -30.3523C1 -23.9891 1 -12.3599 1 10.8984V66.9872C1 125.298 44.4494 153.595 71.7102 165.611C79.1051 168.87 82.8026 170.5 93.25 170.5C103.697 170.5 107.395 168.87 114.79 165.611C142.051 153.595 185.5 125.298 185.5 66.9872ZM57.375 32.4701C49.757 32.4701 45.0173 36.0616 43.7517 38.6859C41.8539 42.6211 37.2366 44.2171 33.4387 42.2507C29.6408 40.2843 28.1004 35.5 29.9983 31.5647C34.7007 21.8139 46.0642 16.5392 57.375 16.5392C68.6858 16.5392 80.0493 21.8139 84.7517 31.5647C86.6496 35.5 85.1092 40.2843 81.3113 42.2507C77.5134 44.2171 72.8961 42.6211 70.9983 38.6859C69.7327 36.0616 64.993 32.4701 57.375 32.4701ZM115.502 38.6859C116.767 36.0616 121.507 32.4701 129.125 32.4701C136.743 32.4701 141.483 36.0616 142.748 38.6859C144.646 42.6211 149.263 44.2171 153.061 42.2507C156.859 40.2843 158.4 35.5 156.502 31.5647C151.799 21.8139 140.436 16.5392 129.125 16.5392C117.814 16.5392 106.451 21.8139 101.748 31.5647C99.8504 35.5 101.391 40.2843 105.189 42.2507C108.987 44.2171 113.604 42.6211 115.502 38.6859Z" stroke="#262626" stroke-width="2" stroke-dasharray="16 6"/>
</svg>
