<svg width="191" height="200" viewBox="0 0 191 200" fill="none" xmlns="http://www.w3.org/2000/svg">
<path d="M187.7 124.6L143.633 104.713C139.573 102.885 139.573 97.1223 143.633 95.2946L187.7 75.4075C193.323 72.8721 190.57 64.3873 184.527 65.6394L137.193 75.4542C132.838 76.3564 129.447 71.6979 131.656 67.8325L155.618 25.8421C158.675 20.4757 151.457 15.2337 147.304 19.799L114.779 55.5596C111.785 58.8494 106.309 57.0763 105.82 52.651L100.523 4.60229C99.8464 -1.5341 90.9257 -1.5341 90.2491 4.60229L84.9526 52.651C84.4627 57.0763 78.9873 58.8494 75.993 55.5596L43.46 19.799C39.3069 15.2337 32.0895 20.4757 35.146 25.8421L59.1083 67.8325C61.3171 71.6979 57.926 76.3564 53.5707 75.4542L6.23745 65.6394C0.194393 64.3873 -2.56665 72.8721 3.0642 75.4075L47.1312 95.2946C51.191 97.1223 51.191 102.885 47.1312 104.713L3.0642 124.6C-2.55887 127.143 0.194393 135.62 6.23745 134.368L53.5707 124.553C57.926 123.651 61.3171 128.31 59.1083 132.175L35.146 174.165C32.0895 179.524 39.3069 184.766 43.46 180.201L75.993 144.44C78.9873 141.15 84.4627 142.931 84.9526 147.349L90.2491 195.398C90.9257 201.534 99.8464 201.534 100.523 195.398L105.82 147.349C106.309 142.923 111.785 141.142 114.779 144.44L147.304 180.201C151.457 184.766 158.675 179.524 155.618 174.165L131.656 132.175C129.455 128.31 132.838 123.651 137.193 124.553L184.527 134.368C190.57 135.62 193.331 127.135 187.7 124.6Z" fill="#C2B4A3"/>
</svg>
