<svg width="316" height="329" viewBox="0 0 316 329" fill="none" xmlns="http://www.w3.org/2000/svg">
<g clip-path="url(#clip0_113_47)">
<mask id="mask0_113_47" style="mask-type:luminance" maskUnits="userSpaceOnUse" x="0" y="-58" width="446" height="446">
<path d="M446 -58H0V388H446V-58Z" fill="white"/>
</mask>
<g mask="url(#mask0_113_47)">
<path d="M222.999 -58L228.942 108.447L269.363 -53.1269L240.571 110.918L313.702 -38.7206L251.432 115.754L354.076 -15.4108L261.05 122.741L388.719 15.7838L269.004 131.576L416.124 53.5L274.947 141.871L435.085 96.0892L278.622 153.177L444.777 141.69L279.864 165L444.777 188.31L278.622 176.823L435.085 233.911L274.947 188.13L416.124 276.5L269.004 198.425L388.719 314.216L261.05 207.258L354.076 345.411L251.432 214.247L313.702 368.722L240.571 219.082L269.363 383.127L228.942 221.553L222.999 388L217.055 221.553L176.635 383.127L205.427 219.082L132.297 368.722L194.567 214.247L91.923 345.411L184.949 207.258L57.2777 314.216L176.994 198.425L29.8755 276.5L171.05 188.13L10.9135 233.911L167.377 176.823L1.2207 188.31L166.134 165L1.2207 141.69L167.377 153.177L10.9135 96.0892L171.05 141.871L29.8755 53.5L176.994 131.576L57.2777 15.7838L184.949 122.741L91.923 -15.4108L194.567 115.754L132.297 -38.7206L205.427 110.918L176.635 -53.1269L217.055 108.447L222.999 -58Z" fill="#C7BAAA"/>
</g>
</g>
<defs>
<clipPath id="clip0_113_47">
<rect width="446" height="446" fill="white" transform="translate(0 -58)"/>
</clipPath>
</defs>
</svg>
