<svg width="60" height="60" viewBox="0 0 60 60" fill="none" xmlns="http://www.w3.org/2000/svg">
<mask id="mask0_71_2691" style="mask-type:luminance" maskUnits="userSpaceOnUse" x="0" y="0" width="60" height="60">
<path d="M60 0H0V60H60V0Z" fill="white"/>
</mask>
<g mask="url(#mask0_71_2691)">
<path d="M30 0L30.7995 22.3919L36.2373 0.655572L32.364 22.7244L42.2022 2.59364L33.825 23.3749L47.6337 5.72949L35.1189 24.3149L52.2942 9.92607L36.189 25.5035L55.9809 15L36.9885 26.8885L58.5318 20.7295L37.4829 28.4095L59.8356 26.8641L37.65 30L59.8356 33.1359L37.4829 31.5906L58.5318 39.2706L36.9885 33.1116L55.9809 45L36.189 34.4967L52.2942 50.0739L35.1189 35.685L47.6337 54.2706L33.825 36.6252L42.2022 57.4065L32.364 37.2756L36.2373 59.3445L30.7995 37.608L30 60L29.2003 37.608L23.7626 59.3445L27.636 37.2756L17.7979 57.4065L26.175 36.6252L12.3664 54.2706L24.8811 35.685L7.70561 50.0739L23.811 34.4967L4.01921 45L23.0113 33.1116L1.46827 39.2706L22.5171 31.5906L0.164307 33.1359L22.35 30L0.164307 26.8641L22.5171 28.4095L1.46827 20.7295L23.0113 26.8885L4.01921 15L23.811 25.5035L7.70561 9.92607L24.8811 24.3149L12.3664 5.72949L26.175 23.3749L17.7979 2.59364L27.636 22.7244L23.7626 0.655572L29.2003 22.3919L30 0Z" fill="#AE9B84"/>
</g>
</svg>
