<svg width="201" height="200" viewBox="0 0 201 200" fill="none" xmlns="http://www.w3.org/2000/svg">
<path d="M200.046 112.202L187.164 87.8673C168.614 97.6841 153.543 103.653 142.113 105.703C155.433 96.601 167.531 80.931 178.546 58.5551L153.843 46.3648C146.33 61.597 139.302 71.3677 132.942 77.5896C136.56 60.8826 131.951 37.3315 112.179 0L87.8442 12.8817C97.661 31.4322 103.629 46.5031 105.68 57.9099C96.578 44.5904 80.9079 32.5153 58.5551 21.4771L46.3648 46.1805C61.597 53.6928 71.3677 60.7213 77.5896 67.0815C60.8826 63.4635 37.3315 68.0724 0 87.8212L12.8817 112.156C31.4092 102.339 46.457 96.3936 57.8869 94.3196C44.5443 103.537 32.4692 119.184 21.5002 141.445L46.2035 153.635C53.6698 138.472 60.7213 128.678 67.1045 122.41C63.4866 139.117 68.0954 162.669 87.8673 200L112.202 187.118C102.385 168.591 96.4397 153.543 94.3657 142.113C103.583 155.456 119.23 167.531 141.491 178.5L153.681 153.797C138.518 146.33 128.725 139.302 122.457 132.919C125.844 133.656 129.485 134.048 133.495 134.048C149.257 134.048 170.296 127.918 200.069 112.156L200.046 112.202Z" fill="#C2B4A3"/>
</svg>
